<svg width="1677" height="1076" xmlns="http://www.w3.org/2000/svg" xmlns:xlink="http://www.w3.org/1999/xlink" xml:space="preserve" overflow="hidden"><g transform="translate(-2472 -240)"><path d="M3591.5 297.5C3591.5 267.124 3616.12 242.5 3646.5 242.5L3866.5 242.5C3896.88 242.5 3921.5 267.124 3921.5 297.5L3921.5 1252.5C3921.5 1282.88 3896.88 1307.5 3866.5 1307.5L3646.5 1307.5C3616.12 1307.5 3591.5 1282.88 3591.5 1252.5Z" stroke="#F2F2F2" stroke-width="4.58333" stroke-miterlimit="8" fill="#F2F2F2" fill-rule="evenodd"/><path d="M2943.5 301.5C2943.5 271.125 2968.12 246.5 2998.5 246.5L3218.5 246.5C3248.88 246.5 3273.5 271.125 3273.5 301.5L3273.5 1256.5C3273.5 1286.88 3248.88 1311.5 3218.5 1311.5L2998.5 1311.5C2968.12 1311.5 2943.5 1286.88 2943.5 1256.5Z" stroke="#F2F2F2" stroke-width="4.58333" stroke-miterlimit="8" fill="#F2F2F2" fill-rule="evenodd"/><path d="M0 0 1391.41 0.000360892" stroke="#000000" stroke-width="6.875" stroke-miterlimit="8" fill="none" fill-rule="evenodd" transform="matrix(-1 0 0 1 4148.91 411.5)"/><path d="M3161.5 411.5C3161.5 441.876 3136.88 466.5 3106.5 466.5 3076.12 466.5 3051.5 441.876 3051.5 411.5 3051.5 381.124 3076.12 356.5 3106.5 356.5 3136.88 356.5 3161.5 381.124 3161.5 411.5Z" stroke="#000000" stroke-width="6.875" stroke-miterlimit="8" fill="none" fill-rule="evenodd"/><path d="M3106.5 356.5 3106.5 466.735" stroke="#000000" stroke-width="6.875" stroke-miterlimit="8" fill="none" fill-rule="evenodd"/><text font-family="Poppins,Poppins_MSFontService,sans-serif" font-weight="400" font-size="83" transform="matrix(1 0 0 1 2521.88 448)">q[0]</text><text font-family="Poppins,Poppins_MSFontService,sans-serif" font-weight="400" font-size="83" transform="matrix(1 0 0 1 3050.45 1243)">m1</text><text font-family="Poppins,Poppins_MSFontService,sans-serif" font-weight="400" font-size="83" transform="matrix(1 0 0 1 3689.41 1243)">m2</text><path d="M0 0 1391.41 0.000360892" stroke="#000000" stroke-width="6.875" stroke-miterlimit="8" fill="none" fill-rule="evenodd" transform="matrix(-1 0 0 1 4147.91 692.5)"/><text font-family="Poppins,Poppins_MSFontService,sans-serif" font-weight="400" font-size="83" transform="matrix(1 0 0 1 2532.86 729)">q</text><text font-family="Poppins,Poppins_MSFontService,sans-serif" font-weight="400" font-size="83" transform="matrix(1 0 0 1 2588.43 729)">[</text><text font-family="Poppins,Poppins_MSFontService,sans-serif" font-weight="400" font-size="83" transform="matrix(1 0 0 1 2623.38 729)">1</text><text font-family="Poppins,Poppins_MSFontService,sans-serif" font-weight="400" font-size="83" transform="matrix(1 0 0 1 2649.73 729)">]</text><path d="M0 0 1391.41 0.000360892" stroke="#000000" stroke-width="6.875" stroke-miterlimit="8" fill="none" fill-rule="evenodd" transform="matrix(-1 0 0 1 4147.91 973.5)"/><text font-family="Poppins,Poppins_MSFontService,sans-serif" font-weight="400" font-size="83" transform="matrix(1 0 0 1 2522.26 1010)">q</text><text font-family="Poppins,Poppins_MSFontService,sans-serif" font-weight="400" font-size="83" transform="matrix(1 0 0 1 2577.83 1010)">[</text><text font-family="Poppins,Poppins_MSFontService,sans-serif" font-weight="400" font-size="83" transform="matrix(1 0 0 1 2612.78 1010)">2</text><text font-family="Poppins,Poppins_MSFontService,sans-serif" font-weight="400" font-size="83" transform="matrix(1 0 0 1 2660.33 1010)">]</text><path d="M3727 411C3727 394.984 3739.76 382 3755.5 382 3771.24 382 3784 394.984 3784 411 3784 427.016 3771.24 440 3755.5 440 3739.76 440 3727 427.016 3727 411Z" fill-rule="evenodd"/><path d="M3160.5 690.5C3160.5 720.876 3135.88 745.5 3105.5 745.5 3075.12 745.5 3050.5 720.876 3050.5 690.5 3050.5 660.124 3075.12 635.5 3105.5 635.5 3135.88 635.5 3160.5 660.124 3160.5 690.5Z" stroke="#000000" stroke-width="6.875" stroke-miterlimit="8" fill="none" fill-rule="evenodd"/><path d="M3105.5 635.5 3105.5 745.735" stroke="#000000" stroke-width="6.875" stroke-miterlimit="8" fill="none" fill-rule="evenodd"/><path d="M3793.04 655.737 3720.68 728.097" stroke="#000000" stroke-width="6.875" stroke-miterlimit="8" fill="none" fill-rule="evenodd"/><path d="M0 0 0.000360892 102.331" stroke="#000000" stroke-width="6.875" stroke-miterlimit="8" fill="none" fill-rule="evenodd" transform="matrix(0.707107 -0.707107 -0.707107 -0.707107 3793.04 728.096)"/><path d="M3756.5 404.5 3756.5 976.057" stroke="#000000" stroke-width="6.875" stroke-miterlimit="8" fill="none" fill-rule="evenodd"/><path d="M3791.76 939.224 3719.4 1011.58" stroke="#000000" stroke-width="6.875" stroke-miterlimit="8" fill="none" fill-rule="evenodd"/><path d="M0 0 0.000360892 102.331" stroke="#000000" stroke-width="6.875" stroke-miterlimit="8" fill="none" fill-rule="evenodd" transform="matrix(0.707107 -0.707107 -0.707107 -0.707107 3791.76 1011.58)"/></g></svg>