<svg width="1677" height="1076" xmlns="http://www.w3.org/2000/svg" xmlns:xlink="http://www.w3.org/1999/xlink" xml:space="preserve" overflow="hidden"><g transform="translate(-359 -1107)"><path d="M1478.5 1164.5C1478.5 1134.12 1503.12 1109.5 1533.5 1109.5L1753.5 1109.5C1783.88 1109.5 1808.5 1134.12 1808.5 1164.5L1808.5 2120.5C1808.5 2150.88 1783.88 2175.5 1753.5 2175.5L1533.5 2175.5C1503.12 2175.5 1478.5 2150.88 1478.5 2120.5Z" stroke="#F2F2F2" stroke-width="4.58333" stroke-miterlimit="8" fill="#F2F2F2" fill-rule="evenodd"/><path d="M830.5 1168.5C830.5 1138.12 855.125 1113.5 885.501 1113.5L1105.5 1113.5C1135.88 1113.5 1160.5 1138.12 1160.5 1168.5L1160.5 2124.5C1160.5 2154.88 1135.88 2179.5 1105.5 2179.5L885.501 2179.5C855.125 2179.5 830.5 2154.88 830.5 2124.5Z" stroke="#F2F2F2" stroke-width="4.58333" stroke-miterlimit="8" fill="#F2F2F2" fill-rule="evenodd"/><path d="M0 0 1391.41 0.000360892" stroke="#000000" stroke-width="6.875" stroke-miterlimit="8" fill="none" fill-rule="evenodd" transform="matrix(-1 0 0 1 2035.91 1278.5)"/><path d="M1048.5 1278.5C1048.5 1308.88 1023.88 1333.5 993.5 1333.5 963.124 1333.5 938.5 1308.88 938.5 1278.5 938.5 1248.12 963.124 1223.5 993.5 1223.5 1023.88 1223.5 1048.5 1248.12 1048.5 1278.5Z" stroke="#000000" stroke-width="6.875" stroke-miterlimit="8" fill="none" fill-rule="evenodd"/><path d="M993.5 1223.5 993.5 1333.73" stroke="#000000" stroke-width="6.875" stroke-miterlimit="8" fill="none" fill-rule="evenodd"/><path d="M1047.5 1559.5C1047.5 1589.88 1022.88 1614.5 992.5 1614.5 962.124 1614.5 937.5 1589.88 937.5 1559.5 937.5 1529.12 962.124 1504.5 992.5 1504.5 1022.88 1504.5 1047.5 1529.12 1047.5 1559.5Z" stroke="#000000" stroke-width="6.875" stroke-miterlimit="8" fill="none" fill-rule="evenodd"/><path d="M992.5 1504.5 992.5 1614.73" stroke="#000000" stroke-width="6.875" stroke-miterlimit="8" fill="none" fill-rule="evenodd"/><text font-family="Poppins,Poppins_MSFontService,sans-serif" font-weight="400" font-size="83" transform="matrix(1 0 0 1 409.07 1316)">q[0]</text><text font-family="Poppins,Poppins_MSFontService,sans-serif" font-weight="400" font-size="83" transform="matrix(1 0 0 1 937.64 2110)">m1</text><text font-family="Poppins,Poppins_MSFontService,sans-serif" font-weight="400" font-size="83" transform="matrix(1 0 0 1 1576.6 2110)">m2</text><path d="M0 0 1391.41 0.000360892" stroke="#000000" stroke-width="6.875" stroke-miterlimit="8" fill="none" fill-rule="evenodd" transform="matrix(-1 0 0 1 2034.91 1559.5)"/><text font-family="Poppins,Poppins_MSFontService,sans-serif" font-weight="400" font-size="83" transform="matrix(1 0 0 1 420.049 1597)">q</text><text font-family="Poppins,Poppins_MSFontService,sans-serif" font-weight="400" font-size="83" transform="matrix(1 0 0 1 475.622 1597)">[</text><text font-family="Poppins,Poppins_MSFontService,sans-serif" font-weight="400" font-size="83" transform="matrix(1 0 0 1 510.57 1597)">1</text><text font-family="Poppins,Poppins_MSFontService,sans-serif" font-weight="400" font-size="83" transform="matrix(1 0 0 1 536.924 1597)">]</text><path d="M0 0 1391.41 0.000360892" stroke="#000000" stroke-width="6.875" stroke-miterlimit="8" fill="none" fill-rule="evenodd" transform="matrix(-1 0 0 1 2034.91 1840.5)"/><text font-family="Poppins,Poppins_MSFontService,sans-serif" font-weight="400" font-size="83" transform="matrix(1 0 0 1 409.45 1878)">q</text><text font-family="Poppins,Poppins_MSFontService,sans-serif" font-weight="400" font-size="83" transform="matrix(1 0 0 1 465.023 1878)">[</text><text font-family="Poppins,Poppins_MSFontService,sans-serif" font-weight="400" font-size="83" transform="matrix(1 0 0 1 499.971 1878)">2</text><text font-family="Poppins,Poppins_MSFontService,sans-serif" font-weight="400" font-size="83" transform="matrix(1 0 0 1 547.523 1878)">]</text><path d="M1699.5 1841.5C1699.5 1871.88 1674.88 1896.5 1644.5 1896.5 1614.12 1896.5 1589.5 1871.88 1589.5 1841.5 1589.5 1811.12 1614.12 1786.5 1644.5 1786.5 1674.88 1786.5 1699.5 1811.12 1699.5 1841.5Z" stroke="#000000" stroke-width="6.875" stroke-miterlimit="8" fill="none" fill-rule="evenodd"/><path d="M1644.5 1786.5 1644.5 1896.73" stroke="#000000" stroke-width="6.875" stroke-miterlimit="8" fill="none" fill-rule="evenodd"/><path d="M1698.5 1276.5C1698.5 1306.88 1673.88 1331.5 1643.5 1331.5 1613.12 1331.5 1588.5 1306.88 1588.5 1276.5 1588.5 1246.12 1613.12 1221.5 1643.5 1221.5 1673.88 1221.5 1698.5 1246.12 1698.5 1276.5Z" stroke="#000000" stroke-width="6.875" stroke-miterlimit="8" fill="none" fill-rule="evenodd"/><path d="M1643.5 1221.5 1643.5 1331.73" stroke="#000000" stroke-width="6.875" stroke-miterlimit="8" fill="none" fill-rule="evenodd"/></g></svg>