<svg width="1083" height="986" xmlns="http://www.w3.org/2000/svg" xmlns:xlink="http://www.w3.org/1999/xlink" xml:space="preserve" overflow="hidden"><defs><clipPath id="clip0"><rect x="261" y="1164" width="1083" height="986"/></clipPath></defs><g clip-path="url(#clip0)" transform="translate(-261 -1164)"><path d="M261 1704.47C261 1685.98 275.985 1671 294.469 1671L1305.53 1671C1324.02 1671 1339 1685.98 1339 1704.47L1339 2111.53C1339 2130.02 1324.02 2145 1305.53 2145L294.469 2145C275.985 2145 261 2130.02 261 2111.53Z" fill="#F2F2F2" fill-rule="evenodd"/><path d="M261 1197.47C261 1178.98 275.985 1164 294.469 1164L1305.53 1164C1324.02 1164 1339 1178.98 1339 1197.47L1339 1604.53C1339 1623.02 1324.02 1638 1305.53 1638L294.469 1638C275.985 1638 261 1623.02 261 1604.53Z" fill="#F2F2F2" fill-rule="evenodd"/><path d="M0 0 662.736 0.000360892" stroke="#000000" stroke-width="6.875" stroke-miterlimit="8" fill="none" fill-rule="evenodd" transform="matrix(-1 0 0 1 1143.24 1318.5)"/><path d="M811.5 1263.5 811.5 1510.21" stroke="#000000" stroke-width="6.875" stroke-miterlimit="8" fill="none" fill-rule="evenodd"/><text font-family="CMU Serif,CMU Serif_MSFontService,sans-serif" font-weight="500" font-size="83" transform="matrix(1 0 0 1 333.569 1351)">|0</text><text font-family="Cambria Math,Cambria Math_MSFontService,sans-serif" font-weight="400" font-size="83" transform="matrix(1 0 0 1 397.736 1351)">⟩</text><text font-family="CMU Serif,CMU Serif_MSFontService,sans-serif" font-weight="500" font-size="83" transform="matrix(1 0 0 1 1194.9 1351)">|1</text><text font-family="Cambria Math,Cambria Math_MSFontService,sans-serif" font-weight="400" font-size="83" transform="matrix(1 0 0 1 1259.07 1351)">⟩</text><path d="M0 0 662.736 0.000360892" stroke="#000000" stroke-width="6.875" stroke-miterlimit="8" fill="none" fill-rule="evenodd" transform="matrix(-1 0 0 1 1145.24 1539.5)"/><text font-family="CMU Serif,CMU Serif_MSFontService,sans-serif" font-weight="500" font-size="83" transform="matrix(1 0 0 1 336.085 1571)">|0</text><text font-family="Cambria Math,Cambria Math_MSFontService,sans-serif" font-weight="400" font-size="83" transform="matrix(1 0 0 1 400.251 1571)">⟩</text><text font-family="CMU Serif,CMU Serif_MSFontService,sans-serif" font-weight="500" font-size="83" transform="matrix(1 0 0 1 1197.42 1571)">|0</text><text font-family="Cambria Math,Cambria Math_MSFontService,sans-serif" font-weight="400" font-size="83" transform="matrix(1 0 0 1 1261.59 1571)">⟩</text><path d="M782.5 1539C782.5 1523.26 795.484 1510.5 811.5 1510.5 827.516 1510.5 840.5 1523.26 840.5 1539 840.5 1554.74 827.516 1567.5 811.5 1567.5 795.484 1567.5 782.5 1554.74 782.5 1539Z" stroke="#000000" stroke-width="6.875" stroke-miterlimit="8" fill="#FFFFFF" fill-rule="evenodd"/><path d="M0 0 662.736 0.000360892" stroke="#000000" stroke-width="6.875" stroke-miterlimit="8" fill="none" fill-rule="evenodd" transform="matrix(-1 0 0 1 1145.24 1826.5)"/><path d="M814.5 1771.5 814.5 2021.94" stroke="#000000" stroke-width="6.875" stroke-miterlimit="8" fill="none" fill-rule="evenodd"/><text font-family="CMU Serif,CMU Serif_MSFontService,sans-serif" font-weight="500" font-size="83" transform="matrix(1 0 0 1 336.085 1859)">|0</text><text font-family="Cambria Math,Cambria Math_MSFontService,sans-serif" font-weight="400" font-size="83" transform="matrix(1 0 0 1 400.251 1859)">⟩</text><text font-family="CMU Serif,CMU Serif_MSFontService,sans-serif" font-weight="500" font-size="83" transform="matrix(1 0 0 1 1197.42 1859)">|0</text><text font-family="Cambria Math,Cambria Math_MSFontService,sans-serif" font-weight="400" font-size="83" transform="matrix(1 0 0 1 1261.59 1859)">⟩</text><path d="M0 0 662.736 0.000360892" stroke="#000000" stroke-width="6.875" stroke-miterlimit="8" fill="none" fill-rule="evenodd" transform="matrix(-1 0 0 1 1148.24 2047.5)"/><text font-family="CMU Serif,CMU Serif_MSFontService,sans-serif" font-weight="500" font-size="83" transform="matrix(1 0 0 1 338.6 2079)">|1</text><text font-family="Cambria Math,Cambria Math_MSFontService,sans-serif" font-weight="400" font-size="83" transform="matrix(1 0 0 1 402.767 2079)">⟩</text><text font-family="CMU Serif,CMU Serif_MSFontService,sans-serif" font-weight="500" font-size="83" transform="matrix(1 0 0 1 1199.93 2079)">|1</text><text font-family="Cambria Math,Cambria Math_MSFontService,sans-serif" font-weight="400" font-size="83" transform="matrix(1 0 0 1 1264.1 2079)">⟩</text><path d="M785.5 2051C785.5 2035.26 798.484 2022.5 814.5 2022.5 830.516 2022.5 843.5 2035.26 843.5 2051 843.5 2066.74 830.516 2079.5 814.5 2079.5 798.484 2079.5 785.5 2066.74 785.5 2051Z" stroke="#000000" stroke-width="6.875" stroke-miterlimit="8" fill="#FFFFFF" fill-rule="evenodd"/><path d="M866.5 1318.5C866.5 1348.88 841.876 1373.5 811.5 1373.5 781.124 1373.5 756.5 1348.88 756.5 1318.5 756.5 1288.12 781.124 1263.5 811.5 1263.5 841.876 1263.5 866.5 1288.12 866.5 1318.5Z" stroke="#000000" stroke-width="6.875" stroke-miterlimit="8" fill="none" fill-rule="evenodd"/><path d="M869.5 1826.5C869.5 1856.88 844.875 1881.5 814.5 1881.5 784.124 1881.5 759.5 1856.88 759.5 1826.5 759.5 1796.12 784.124 1771.5 814.5 1771.5 844.875 1771.5 869.5 1796.12 869.5 1826.5Z" stroke="#000000" stroke-width="6.875" stroke-miterlimit="8" fill="none" fill-rule="evenodd"/></g></svg>