<svg width="670" height="315" xmlns="http://www.w3.org/2000/svg" xmlns:xlink="http://www.w3.org/1999/xlink" xml:space="preserve" overflow="hidden"><g transform="translate(-1517 -1803)"><path d="M1907.5 2058.5C1907.5 2088.88 1882.65 2113.5 1852 2113.5 1821.35 2113.5 1796.5 2088.88 1796.5 2058.5 1796.5 2028.12 1821.35 2003.5 1852 2003.5 1882.65 2003.5 1907.5 2028.12 1907.5 2058.5Z" stroke="#000000" stroke-width="6.875" stroke-miterlimit="8" fill="none" fill-rule="evenodd"/><path d="M1852.5 2003.5 1852.5 2113.73" stroke="#000000" stroke-width="6.875" stroke-miterlimit="8" fill="none" fill-rule="evenodd"/><path d="M0 0 662.736 0.000360892" stroke="#000000" stroke-width="6.875" stroke-miterlimit="8" fill="none" fill-rule="evenodd" transform="matrix(-1 0 0 1 2183.24 1837.5)"/><path d="M1852.5 1837.5 1852.5 2057.75" stroke="#000000" stroke-width="6.875" stroke-miterlimit="8" fill="none" fill-rule="evenodd"/><path d="M0 0 662.736 0.000360892" stroke="#000000" stroke-width="6.875" stroke-miterlimit="8" fill="none" fill-rule="evenodd" transform="matrix(-1 0 0 1 2186.24 2058.5)"/><path d="M1823.5 1835.5C1823.5 1819.48 1836.26 1806.5 1852 1806.5 1867.74 1806.5 1880.5 1819.48 1880.5 1835.5 1880.5 1851.52 1867.74 1864.5 1852 1864.5 1836.26 1864.5 1823.5 1851.52 1823.5 1835.5Z" stroke="#000000" stroke-width="6.875" stroke-miterlimit="8" fill="#FFFFFF" fill-rule="evenodd"/></g></svg>