<svg width="1208" height="605" xmlns="http://www.w3.org/2000/svg" xmlns:xlink="http://www.w3.org/1999/xlink" xml:space="preserve" overflow="hidden"><g transform="translate(-602 -601)"><path d="M602.5 719.5 1604.61 719.5" stroke="#000000" stroke-width="6.875" stroke-miterlimit="8" fill="none" fill-rule="evenodd"/><path d="M602.5 824.5 1604.61 824.501" stroke="#000000" stroke-width="6.875" stroke-miterlimit="8" fill="none" fill-rule="evenodd"/><path d="M602.5 1051.5 1604.61 1051.5" stroke="#000000" stroke-width="6.875" stroke-miterlimit="8" fill="none" fill-rule="evenodd"/><path d="M602.5 1156.5 1604.61 1156.5" stroke="#000000" stroke-width="6.875" stroke-miterlimit="8" fill="none" fill-rule="evenodd"/><path d="M632 770 1598.35 770" stroke="#C9EDFF" stroke-width="27.5" stroke-linecap="round" stroke-linejoin="bevel" stroke-miterlimit="10" stroke-dasharray="55 55" fill="none" fill-rule="evenodd"/><rect x="1675.5" y="704.5" width="120" height="133" stroke="#D9D9D9" stroke-width="3.4375" stroke-linejoin="round" stroke-miterlimit="10" fill="#F2F2F2"/><text font-family="Poppins,Poppins_MSFontService,sans-serif" font-weight="400" font-size="83" transform="matrix(1 0 0 1 1721.53 796)">1</text><rect x="1675.5" y="1040.5" width="120" height="133" stroke="#D9D9D9" stroke-width="3.4375" stroke-linejoin="round" stroke-miterlimit="10" fill="#F2F2F2"/><text font-family="Poppins,Poppins_MSFontService,sans-serif" font-weight="400" font-size="83" transform="matrix(1 0 0 1 1708.92 1133)">0</text><path d="M638 1107 1604.35 1107" stroke="#C9EDFF" stroke-width="27.5" stroke-linecap="round" stroke-linejoin="bevel" stroke-miterlimit="10" stroke-dasharray="55 55" stroke-opacity="0.239216" fill="none" fill-rule="evenodd"/><text font-family="Poppins,Poppins_MSFontService,sans-serif" font-weight="400" font-size="55" transform="matrix(1 0 0 1 635.477 669)">High voltage</text><text font-family="Poppins,Poppins_MSFontService,sans-serif" font-weight="400" font-size="55" transform="matrix(1 0 0 1 635.477 1007)">Low voltage</text></g></svg>