<svg width="1273" height="1462" xmlns="http://www.w3.org/2000/svg" xmlns:xlink="http://www.w3.org/1999/xlink" xml:space="preserve" overflow="hidden"><g transform="translate(-115 -125)"><path d="M0 0 1018.22 0.000360892" stroke="#D9D9D9" stroke-width="6.875" stroke-miterlimit="8" fill="none" fill-rule="evenodd" transform="matrix(1 0 0 -1 118.5 908.5)"/><path d="M0 0 0.000360892 1018.22" stroke="#D9D9D9" stroke-width="6.875" stroke-miterlimit="8" fill="none" fill-rule="evenodd" transform="matrix(1 0 0 -1 627.5 1416.72)"/><path d="M0 115.5C-6.48025e-14 51.7111 227.887-1.47047e-14 509-2.94094e-14 790.113-5.88188e-14 1018 51.7111 1018 115.5 1018 179.289 790.113 231 509 231 227.887 231-3.24012e-13 179.289 0 115.5Z" stroke="#D9D9D9" stroke-width="6.875" stroke-miterlimit="8" stroke-dasharray="55 20.625" fill="none" fill-rule="evenodd" transform="matrix(1 0 0 -1 118.5 1020.5)"/><path d="M0 116C-6.48662e-14 51.935 228.111-1.47683e-14 509.5-2.95367e-14 790.889-5.90734e-14 1019 51.935 1019 116 1019 180.065 790.889 232 509.5 232 228.111 232-3.24331e-13 180.065 0 116Z" stroke="#D9D9D9" stroke-width="6.875" stroke-miterlimit="8" stroke-dasharray="55 20.625" fill="none" fill-rule="evenodd" transform="matrix(-1.83697e-16 -1 -1 1.83697e-16 743.5 1417.5)"/><path d="M0 509.5C-6.48025e-14 228.111 227.887-6.48662e-14 509-1.29732e-13 790.113-2.59465e-13 1018 228.111 1018 509.5 1018 790.889 790.113 1019 509 1019 227.887 1019-3.24012e-13 790.889 0 509.5Z" stroke="#000000" stroke-width="6.875" stroke-miterlimit="8" fill="none" fill-rule="evenodd" transform="matrix(1 0 0 -1 118.5 1417.5)"/><path d="M0 15.5C-2.03701e-15 6.93957 7.16344-1.97335e-15 16-3.94671e-15 24.8365-7.89341e-15 32 6.93957 32 15.5 32 24.0604 24.8365 30.9999 16 30.9999 7.16344 30.9999-1.01851e-14 24.0604 0 15.5Z" stroke="#172C51" stroke-width="4.58333" stroke-miterlimit="8" fill="#66CCFF" fill-rule="evenodd" transform="matrix(1 0 0 -1 611.5 1432.5)"/><path d="M624.5 907.208 1241.61 907.209 1241.61 911.792 624.5 911.792ZM1237.03 895.75 1264.53 909.5 1237.03 923.25Z"/><path d="M2.29167-1.24852e-06 2.29202 639.503-2.29132 639.503-2.29167 1.24852e-06ZM13.7503 634.92 0.000360892 662.42-13.7497 634.92Z" transform="matrix(1 0 0 -1 627.5 909.92)"/><path d="M0 15.5C-2.03701e-15 6.93957 7.16344-1.97335e-15 16-3.94671e-15 24.8365-7.89341e-15 32 6.93957 32 15.5 32 24.0604 24.8365 30.9999 16 30.9999 7.16344 30.9999-1.01851e-14 24.0604 0 15.5Z" stroke="#172C51" stroke-width="4.58333" stroke-miterlimit="8" fill="#66CCFF" fill-rule="evenodd" transform="matrix(1 0 0 -1 611.5 414.5)"/><text font-family="Poppins,Poppins_MSFontService,sans-serif" font-weight="400" font-size="83" transform="matrix(1 0 0 1 662.267 349)">|0</text><text font-family="Cambria Math,Cambria Math_MSFontService,sans-serif" font-weight="400" font-size="83" transform="matrix(1 0 0 1 737.892 349)">⟩</text><text font-family="Poppins,Poppins_MSFontService,sans-serif" font-weight="400" font-size="83" transform="matrix(1 0 0 1 789.455 349)">= (0,0,1)</text><text font-family="Poppins,Poppins_MSFontService,sans-serif" font-weight="400" font-size="83" transform="matrix(1 0 0 1 676.082 1514)">|1</text><text font-family="Cambria Math,Cambria Math_MSFontService,sans-serif" font-weight="400" font-size="83" transform="matrix(1 0 0 1 726.499 1514)">⟩</text><text font-family="Poppins,Poppins_MSFontService,sans-serif" font-weight="400" font-size="83" transform="matrix(1 0 0 1 778.061 1514)">= (0,0,</text><text font-family="Poppins,Poppins_MSFontService,sans-serif" font-weight="400" font-size="83" transform="matrix(1 0 0 1 1033.01 1514)">-</text><text font-family="Poppins,Poppins_MSFontService,sans-serif" font-weight="400" font-size="83" transform="matrix(1 0 0 1 1078.27 1514)">1)</text><path d="M1.59968-1.64096 215.989 207.354 212.789 210.636-1.59968 1.64096ZM220.705 195.95 230.799 224.992 201.509 215.641Z" transform="matrix(-1 0 0 1 627.298 907.5)"/><text font-family="Poppins,Poppins_MSFontService,sans-serif" font-weight="700" font-size="64" transform="matrix(1 0 0 1 332.238 1202)">x</text><text font-family="Poppins,Poppins_MSFontService,sans-serif" font-weight="700" font-size="64" transform="matrix(1 0 0 1 608.461 204)">z</text><text font-family="Poppins,Poppins_MSFontService,sans-serif" font-weight="700" font-size="64" transform="matrix(1 0 0 1 1284.78 928)">y</text><path d="M0 0 249.853 245.208" stroke="#D9D9D9" stroke-width="4.58333" stroke-miterlimit="8" stroke-dasharray="36.6667 13.75" fill="none" fill-rule="evenodd" transform="matrix(-1 0 0 1 874.353 667.5)"/></g></svg>