<svg width="1249" height="1462" xmlns="http://www.w3.org/2000/svg" xmlns:xlink="http://www.w3.org/1999/xlink" xml:space="preserve" overflow="hidden"><g transform="translate(-2232 -384)"><path d="M0 0 1018.22 0.000360892" stroke="#D9D9D9" stroke-width="6.875" stroke-miterlimit="8" fill="none" fill-rule="evenodd" transform="matrix(1 0 0 -1 2235.5 1167.5)"/><path d="M0 0 0.000360892 1018.22" stroke="#D9D9D9" stroke-width="6.875" stroke-miterlimit="8" fill="none" fill-rule="evenodd" transform="matrix(1 0 0 -1 2744.5 1676.72)"/><path d="M0 116C-6.48025e-14 51.935 227.887-1.47683e-14 509-2.95367e-14 790.113-5.90734e-14 1018 51.935 1018 116 1018 180.065 790.113 232 509 232 227.887 232-3.24013e-13 180.065 0 116Z" stroke="#D9D9D9" stroke-width="6.875" stroke-miterlimit="8" stroke-dasharray="55 20.625" fill="none" fill-rule="evenodd" transform="matrix(1 0 0 -1 2235.5 1280.5)"/><path d="M0 116C-6.48025e-14 51.9349 227.887-1.47683e-14 509-2.95367e-14 790.113-5.90733e-14 1018 51.9349 1018 116 1018 180.065 790.113 232 509 232 227.887 232-3.24012e-13 180.065 0 116Z" stroke="#D9D9D9" stroke-width="6.875" stroke-miterlimit="8" stroke-dasharray="55 20.625" fill="none" fill-rule="evenodd" transform="matrix(-1.83697e-16 -1 -1 1.83697e-16 2860.5 1676.5)"/><path d="M0 509C-6.48025e-14 227.887 227.887-6.48025e-14 509-1.29605e-13 790.113-2.5921e-13 1018 227.887 1018 509 1018 790.113 790.113 1018 509 1018 227.887 1018-3.24013e-13 790.113 0 509Z" stroke="#000000" stroke-width="6.875" stroke-miterlimit="8" fill="none" fill-rule="evenodd" transform="matrix(1 0 0 -1 2235.5 1676.5)"/><path d="M0 16C-2.03703e-15 7.16344 7.16352-2.03701e-15 16.0002-4.07402e-15 24.8368-8.14805e-15 32.0003 7.16344 32.0003 16 32.0003 24.8365 24.8368 32 16.0002 32 7.16352 32-1.01852e-14 24.8365 0 16Z" stroke="#172C51" stroke-width="4.58333" stroke-miterlimit="8" fill="#66CCFF" fill-rule="evenodd" transform="matrix(1 0 0 -1 2728.5 1692.5)"/><path d="M2741.5 1166.21 3358.61 1166.21 3358.61 1170.79 2741.5 1170.79ZM3354.03 1154.75 3381.53 1168.5 3354.03 1182.25Z"/><path d="M2.29167-1.24852e-06 2.29202 639.503-2.29132 639.503-2.29167 1.24852e-06ZM13.7503 634.92 0.000360892 662.42-13.7497 634.92Z" transform="matrix(1 0 0 -1 2744.5 1168.92)"/><path d="M0 15.5C-2.03703e-15 6.93957 7.16352-1.97335e-15 16.0002-3.94671e-15 24.8368-7.89341e-15 32.0003 6.93957 32.0003 15.5 32.0003 24.0604 24.8368 30.9999 16.0002 30.9999 7.16352 30.9999-1.01852e-14 24.0604 0 15.5Z" stroke="#172C51" stroke-width="4.58333" stroke-miterlimit="8" fill="#66CCFF" fill-rule="evenodd" transform="matrix(1 0 0 -1 2728.5 673.5)"/><text font-family="Poppins,Poppins_MSFontService,sans-serif" font-weight="400" font-size="83" transform="matrix(1 0 0 1 2772.37 610)">|0</text><text font-family="Cambria Math,Cambria Math_MSFontService,sans-serif" font-weight="400" font-size="83" transform="matrix(1 0 0 1 2848 610)">⟩</text><text font-family="Poppins,Poppins_MSFontService,sans-serif" font-weight="400" font-size="83" transform="matrix(1 0 0 1 2784.98 1773)">|</text><text font-family="Poppins,Poppins_MSFontService,sans-serif" font-weight="400" font-size="83" transform="matrix(1 0 0 1 2809.04 1773)">1</text><text font-family="Cambria Math,Cambria Math_MSFontService,sans-serif" font-weight="400" font-size="83" transform="matrix(1 0 0 1 2835.39 1773)">⟩</text><path d="M1.59968-1.64096 215.989 207.354 212.789 210.636-1.59968 1.64096ZM220.705 195.95 230.799 224.992 201.509 215.641Z" transform="matrix(-1 0 0 1 2744.3 1166.5)"/><text font-family="Poppins,Poppins_MSFontService,sans-serif" font-weight="700" font-size="64" transform="matrix(1 0 0 1 2449.13 1461)">x</text><text font-family="Poppins,Poppins_MSFontService,sans-serif" font-weight="700" font-size="64" transform="matrix(1 0 0 1 2725.35 463)">z</text><text font-family="Poppins,Poppins_MSFontService,sans-serif" font-weight="700" font-size="64" transform="matrix(1 0 0 1 3401.67 1187)">y</text><path d="M0 0 249.853 245.208" stroke="#D9D9D9" stroke-width="4.58333" stroke-miterlimit="8" stroke-dasharray="36.6667 13.75" fill="none" fill-rule="evenodd" transform="matrix(-1 0 0 1 2991.35 927.5)"/></g></svg>