<svg width="1963" height="836" xmlns="http://www.w3.org/2000/svg" xmlns:xlink="http://www.w3.org/1999/xlink" xml:space="preserve" overflow="hidden"><g transform="translate(-2312 -1187)"><path d="M2655.5 1588.5 3035 1588.5" stroke="#000000" stroke-width="6.875" stroke-miterlimit="8" fill="none" fill-rule="evenodd"/><text font-family="Poppins,Poppins_MSFontService,sans-serif" font-weight="400" font-size="64" transform="matrix(1 0 0 1 3067.89 1609)">A</text><text font-family="Cambria Math,Cambria Math_MSFontService,sans-serif" font-weight="400" font-size="64" transform="matrix(1 0 0 1 3110.86 1609)">⊕</text><text font-family="Poppins,Poppins_MSFontService,sans-serif" font-weight="400" font-size="64" transform="matrix(1 0 0 1 3174.45 1609)">B</text><text font-family="Poppins,Poppins_MSFontService,sans-serif" font-weight="400" font-size="64" transform="matrix(1 0 0 1 2350.8 1547)">A</text><text font-family="Poppins,Poppins_MSFontService,sans-serif" font-weight="700" font-size="64" transform="matrix(1 0 0 1 2577.89 1854)">XOR gate</text><path d="M3540.23 1190.23 3712.05 1190.23 3712.05 1324.06 3540.23 1324.06Z" fill="#F2F2F2" fill-rule="evenodd"/><path d="M3712.05 1190.23 3883.87 1190.23 3883.87 1324.06 3712.05 1324.06Z" fill="#F2F2F2" fill-rule="evenodd"/><path d="M3883.87 1190.23 4241.48 1190.23 4241.48 1324.06 3883.87 1324.06Z" fill="#F2F2F2" fill-rule="evenodd"/><path d="M3712.05 1187.94 3712.05 1861.69" stroke="#000000" stroke-width="4.58333" stroke-linejoin="round" stroke-miterlimit="10" fill="none" fill-rule="evenodd"/><path d="M3883.87 1187.94 3883.87 1861.69" stroke="#000000" stroke-width="4.58333" stroke-linejoin="round" stroke-miterlimit="10" fill="none" fill-rule="evenodd"/><path d="M3537.94 1324.06 4243.77 1324.06" stroke="#000000" stroke-width="4.58333" stroke-linejoin="round" stroke-miterlimit="10" fill="none" fill-rule="evenodd"/><path d="M3537.94 1457.9 4243.77 1457.9" stroke="#000000" stroke-width="4.58333" stroke-linejoin="round" stroke-miterlimit="10" fill="none" fill-rule="evenodd"/><path d="M3537.94 1591.73 4243.77 1591.73" stroke="#000000" stroke-width="4.58333" stroke-linejoin="round" stroke-miterlimit="10" fill="none" fill-rule="evenodd"/><path d="M3537.94 1725.56 4243.77 1725.56" stroke="#000000" stroke-width="4.58333" stroke-linejoin="round" stroke-miterlimit="10" fill="none" fill-rule="evenodd"/><path d="M3540.23 1187.94 3540.23 1861.69" stroke="#000000" stroke-width="4.58333" stroke-linejoin="round" stroke-miterlimit="10" fill="none" fill-rule="evenodd"/><path d="M4241.48 1187.94 4241.48 1861.69" stroke="#000000" stroke-width="4.58333" stroke-linejoin="round" stroke-miterlimit="10" fill="none" fill-rule="evenodd"/><path d="M3537.94 1190.23 4243.77 1190.23" stroke="#000000" stroke-width="4.58333" stroke-linejoin="round" stroke-miterlimit="10" fill="none" fill-rule="evenodd"/><path d="M3537.94 1859.4 4243.77 1859.4" stroke="#000000" stroke-width="4.58333" stroke-linejoin="round" stroke-miterlimit="10" fill="none" fill-rule="evenodd"/><text font-family="Poppins,Poppins_MSFontService,sans-serif" font-weight="400" font-size="64" transform="matrix(1 0 0 1 3989.63 1279)">A</text><text font-family="Cambria Math,Cambria Math_MSFontService,sans-serif" font-weight="400" font-size="64" transform="matrix(1 0 0 1 4032.6 1279)">⊕</text><text font-family="Poppins,Poppins_MSFontService,sans-serif" font-weight="400" font-size="64" transform="matrix(1 0 0 1 4096.19 1279)">B</text><text font-family="Poppins,Poppins_MSFontService,sans-serif" font-weight="400" font-size="64" transform="matrix(1 0 0 1 3778.2 1278)">B</text><text font-family="Poppins,Poppins_MSFontService,sans-serif" font-weight="400" font-size="64" transform="matrix(1 0 0 1 3604.65 1278)">A</text><text font-family="Poppins,Poppins_MSFontService,sans-serif" font-weight="400" font-size="64" transform="matrix(1 0 0 1 4042.62 1411)">0</text><text font-family="Poppins,Poppins_MSFontService,sans-serif" font-weight="400" font-size="64" transform="matrix(1 0 0 1 3777.91 1411)">0</text><text font-family="Poppins,Poppins_MSFontService,sans-serif" font-weight="400" font-size="64" transform="matrix(1 0 0 1 3606.09 1411)">0</text><text font-family="Poppins,Poppins_MSFontService,sans-serif" font-weight="400" font-size="64" transform="matrix(1 0 0 1 4052.36 1545)">1</text><text font-family="Poppins,Poppins_MSFontService,sans-serif" font-weight="400" font-size="64" transform="matrix(1 0 0 1 3787.65 1545)">1</text><text font-family="Poppins,Poppins_MSFontService,sans-serif" font-weight="400" font-size="64" transform="matrix(1 0 0 1 3606.09 1545)">0</text><text font-family="Poppins,Poppins_MSFontService,sans-serif" font-weight="400" font-size="64" transform="matrix(1 0 0 1 4052.36 1679)">1</text><text font-family="Poppins,Poppins_MSFontService,sans-serif" font-weight="400" font-size="64" transform="matrix(1 0 0 1 3777.91 1679)">0</text><text font-family="Poppins,Poppins_MSFontService,sans-serif" font-weight="400" font-size="64" transform="matrix(1 0 0 1 3615.83 1679)">1</text><text font-family="Poppins,Poppins_MSFontService,sans-serif" font-weight="400" font-size="64" transform="matrix(1 0 0 1 4042.62 1813)">0</text><text font-family="Poppins,Poppins_MSFontService,sans-serif" font-weight="400" font-size="64" transform="matrix(1 0 0 1 3787.65 1813)">1</text><text font-family="Poppins,Poppins_MSFontService,sans-serif" font-weight="400" font-size="64" transform="matrix(1 0 0 1 3615.83 1813)">1</text><text font-family="Poppins,Poppins_MSFontService,sans-serif" font-weight="700" font-size="64" transform="matrix(1 0 0 1 3639.92 1966)">XOR truth table</text><path d="M2425.5 1651.5 2623.21 1651.5" stroke="#000000" stroke-width="6.875" stroke-miterlimit="8" fill="none" fill-rule="evenodd"/><path d="M2425.5 1527.5 2632.09 1527.5" stroke="#000000" stroke-width="6.875" stroke-miterlimit="8" fill="none" fill-rule="evenodd"/><text font-family="Poppins,Poppins_MSFontService,sans-serif" font-weight="400" font-size="64" transform="matrix(1 0 0 1 2352.52 1671)">B</text><path d="M2600.5 1452.76 2664.57 1451.5C2739.41 1451.5 2871.82 1542.82 2871.5 1588.32 2871.18 1633.82 2737.51 1724.5 2662.68 1724.5L2600.5 1723.87C2665.6 1629.71 2688.99 1549.46 2600.5 1452.76Z" stroke="#000000" stroke-width="6.875" stroke-miterlimit="8" fill="#FFFFFF" fill-rule="evenodd"/><path d="M2579.07 1455.5C2594.4 1470.33 2639.45 1513.47 2644.5 1580.49 2629.26 1674.68 2590.17 1703.05 2578.5 1725.5" stroke="#000000" stroke-width="6.875" stroke-miterlimit="8" fill="none" fill-rule="evenodd"/></g></svg>