<svg width="1963" height="835" xmlns="http://www.w3.org/2000/svg" xmlns:xlink="http://www.w3.org/1999/xlink" xml:space="preserve" overflow="hidden"><g transform="translate(-2312 -141)"><path d="M2655.5 541.5 3035 541.5" stroke="#000000" stroke-width="6.875" stroke-miterlimit="8" fill="none" fill-rule="evenodd"/><text font-family="Poppins,Poppins_MSFontService,sans-serif" font-weight="400" font-size="64" transform="matrix(1 0 0 1 3067.89 561)">¬(A+B)</text><text font-family="Poppins,Poppins_MSFontService,sans-serif" font-weight="400" font-size="64" transform="matrix(1 0 0 1 2350.8 500)">A</text><text font-family="Poppins,Poppins_MSFontService,sans-serif" font-weight="700" font-size="64" transform="matrix(1 0 0 1 2576.74 808)">NOR gate</text><path d="M3540.23 143.314 3712.05 143.314 3712.05 277.147 3540.23 277.147Z" fill="#F2F2F2" fill-rule="evenodd"/><path d="M3712.05 143.314 3883.87 143.314 3883.87 277.147 3712.05 277.147Z" fill="#F2F2F2" fill-rule="evenodd"/><path d="M3883.87 143.314 4241.48 143.314 4241.48 277.147 3883.87 277.147Z" fill="#F2F2F2" fill-rule="evenodd"/><path d="M3712.05 141.022 3712.05 814.772" stroke="#000000" stroke-width="4.58333" stroke-linejoin="round" stroke-miterlimit="10" fill="none" fill-rule="evenodd"/><path d="M3883.87 141.022 3883.87 814.772" stroke="#000000" stroke-width="4.58333" stroke-linejoin="round" stroke-miterlimit="10" fill="none" fill-rule="evenodd"/><path d="M3537.94 277.147 4243.77 277.147" stroke="#000000" stroke-width="4.58333" stroke-linejoin="round" stroke-miterlimit="10" fill="none" fill-rule="evenodd"/><path d="M3537.94 410.98 4243.77 410.98" stroke="#000000" stroke-width="4.58333" stroke-linejoin="round" stroke-miterlimit="10" fill="none" fill-rule="evenodd"/><path d="M3537.94 544.814 4243.77 544.814" stroke="#000000" stroke-width="4.58333" stroke-linejoin="round" stroke-miterlimit="10" fill="none" fill-rule="evenodd"/><path d="M3537.94 678.647 4243.77 678.647" stroke="#000000" stroke-width="4.58333" stroke-linejoin="round" stroke-miterlimit="10" fill="none" fill-rule="evenodd"/><path d="M3540.23 141.022 3540.23 814.772" stroke="#000000" stroke-width="4.58333" stroke-linejoin="round" stroke-miterlimit="10" fill="none" fill-rule="evenodd"/><path d="M4241.48 141.022 4241.48 814.772" stroke="#000000" stroke-width="4.58333" stroke-linejoin="round" stroke-miterlimit="10" fill="none" fill-rule="evenodd"/><path d="M3537.94 143.314 4243.77 143.314" stroke="#000000" stroke-width="4.58333" stroke-linejoin="round" stroke-miterlimit="10" fill="none" fill-rule="evenodd"/><path d="M3537.94 812.48 4243.77 812.48" stroke="#000000" stroke-width="4.58333" stroke-linejoin="round" stroke-miterlimit="10" fill="none" fill-rule="evenodd"/><text font-family="Poppins,Poppins_MSFontService,sans-serif" font-weight="400" font-size="64" transform="matrix(1 0 0 1 3949.52 231)">¬(A+B)</text><text font-family="Poppins,Poppins_MSFontService,sans-serif" font-weight="400" font-size="64" transform="matrix(1 0 0 1 3778.2 231)">B</text><text font-family="Poppins,Poppins_MSFontService,sans-serif" font-weight="400" font-size="64" transform="matrix(1 0 0 1 3604.65 231)">A</text><text font-family="Poppins,Poppins_MSFontService,sans-serif" font-weight="400" font-size="64" transform="matrix(1 0 0 1 4052.36 365)">1</text><text font-family="Poppins,Poppins_MSFontService,sans-serif" font-weight="400" font-size="64" transform="matrix(1 0 0 1 3777.91 365)">0</text><text font-family="Poppins,Poppins_MSFontService,sans-serif" font-weight="400" font-size="64" transform="matrix(1 0 0 1 3606.09 365)">0</text><text font-family="Poppins,Poppins_MSFontService,sans-serif" font-weight="400" font-size="64" transform="matrix(1 0 0 1 4042.62 498)">0</text><text font-family="Poppins,Poppins_MSFontService,sans-serif" font-weight="400" font-size="64" transform="matrix(1 0 0 1 3787.65 498)">1</text><text font-family="Poppins,Poppins_MSFontService,sans-serif" font-weight="400" font-size="64" transform="matrix(1 0 0 1 3606.09 498)">0</text><text font-family="Poppins,Poppins_MSFontService,sans-serif" font-weight="400" font-size="64" transform="matrix(1 0 0 1 4042.62 632)">0</text><text font-family="Poppins,Poppins_MSFontService,sans-serif" font-weight="400" font-size="64" transform="matrix(1 0 0 1 3777.91 632)">0</text><text font-family="Poppins,Poppins_MSFontService,sans-serif" font-weight="400" font-size="64" transform="matrix(1 0 0 1 3615.83 632)">1</text><text font-family="Poppins,Poppins_MSFontService,sans-serif" font-weight="400" font-size="64" transform="matrix(1 0 0 1 4042.62 766)">0</text><text font-family="Poppins,Poppins_MSFontService,sans-serif" font-weight="400" font-size="64" transform="matrix(1 0 0 1 3787.65 766)">1</text><text font-family="Poppins,Poppins_MSFontService,sans-serif" font-weight="400" font-size="64" transform="matrix(1 0 0 1 3615.83 766)">1</text><text font-family="Poppins,Poppins_MSFontService,sans-serif" font-weight="700" font-size="64" transform="matrix(1 0 0 1 3638.77 919)">NOR truth table</text><path d="M2425.5 604.5 2643.23 604.501" stroke="#000000" stroke-width="6.875" stroke-miterlimit="8" fill="none" fill-rule="evenodd"/><path d="M2425.5 480.5 2648.49 480.5" stroke="#000000" stroke-width="6.875" stroke-miterlimit="8" fill="none" fill-rule="evenodd"/><text font-family="Poppins,Poppins_MSFontService,sans-serif" font-weight="400" font-size="64" transform="matrix(1 0 0 1 2352.52 624)">B</text><path d="M2600.5 405.765 2664.57 404.5C2739.41 404.5 2871.82 495.816 2871.5 541.316 2871.18 586.816 2737.51 677.5 2662.68 677.5L2600.5 676.867C2665.6 582.706 2688.99 502.456 2600.5 405.765Z" stroke="#000000" stroke-width="6.875" stroke-miterlimit="8" fill="#FFFFFF" fill-rule="evenodd"/><path d="M2872.5 541C2872.5 533.544 2878.54 527.5 2886 527.5 2893.46 527.5 2899.5 533.544 2899.5 541 2899.5 548.456 2893.46 554.5 2886 554.5 2878.54 554.5 2872.5 548.456 2872.5 541Z" stroke="#000000" stroke-width="6.875" stroke-miterlimit="8" fill="#FFFFFF" fill-rule="evenodd"/></g></svg>