<svg width="669" height="312" xmlns="http://www.w3.org/2000/svg" xmlns:xlink="http://www.w3.org/1999/xlink" xml:space="preserve" overflow="hidden"><defs><clipPath id="clip0"><rect x="537" y="1074" width="669" height="312"/></clipPath></defs><g clip-path="url(#clip0)" transform="translate(-537 -1074)"><path d="M926.5 1326.5C926.5 1356.88 901.876 1381.5 871.5 1381.5 841.124 1381.5 816.5 1356.88 816.5 1326.5 816.5 1296.12 841.124 1271.5 871.5 1271.5 901.876 1271.5 926.5 1296.12 926.5 1326.5Z" stroke="#000000" stroke-width="6.875" stroke-miterlimit="8" fill="none" fill-rule="evenodd"/><path d="M871.5 1271.5 871.5 1381.73" stroke="#000000" stroke-width="6.875" stroke-miterlimit="8" fill="none" fill-rule="evenodd"/><path d="M0 0 662.736 0.000360892" stroke="#000000" stroke-width="6.875" stroke-miterlimit="8" fill="none" fill-rule="evenodd" transform="matrix(-1 0 0 1 1203.24 1106.5)"/><path d="M871.5 1106.5 871.5 1326.75" stroke="#000000" stroke-width="6.875" stroke-miterlimit="8" fill="none" fill-rule="evenodd"/><path d="M0 0 662.736 0.000360892" stroke="#000000" stroke-width="6.875" stroke-miterlimit="8" fill="none" fill-rule="evenodd" transform="matrix(-1 0 0 1 1205.24 1326.5)"/><path d="M842 1103C842 1086.98 854.984 1074 871 1074 887.016 1074 900 1086.98 900 1103 900 1119.02 887.016 1132 871 1132 854.984 1132 842 1119.02 842 1103Z" fill-rule="evenodd"/></g></svg>