<svg width="1442" height="1470" xmlns="http://www.w3.org/2000/svg" xmlns:xlink="http://www.w3.org/1999/xlink" xml:space="preserve" overflow="hidden"><g transform="translate(-2829 -1017)"><path d="M0 0 1018.22 0.000360892" stroke="#D9D9D9" stroke-width="6.875" stroke-miterlimit="8" fill="none" fill-rule="evenodd" transform="matrix(1 0 0 -1 3025.5 1800.5)"/><path d="M0 0 0.000360892 1018.22" stroke="#D9D9D9" stroke-width="6.875" stroke-miterlimit="8" fill="none" fill-rule="evenodd" transform="matrix(1 0 0 -1 3534.5 2309.72)"/><path d="M0 116C-6.48025e-14 51.935 227.887-1.47683e-14 509-2.95367e-14 790.113-5.90734e-14 1018 51.935 1018 116 1018 180.065 790.113 232 509 232 227.887 232-3.24013e-13 180.065 0 116Z" stroke="#D9D9D9" stroke-width="6.875" stroke-miterlimit="8" stroke-dasharray="55 20.625" fill="none" fill-rule="evenodd" transform="matrix(1 0 0 -1 3025.5 1913.5)"/><path d="M0 116C-6.48025e-14 51.935 227.887-1.47683e-14 509-2.95367e-14 790.113-5.90734e-14 1018 51.935 1018 116 1018 180.065 790.113 232 509 232 227.887 232-3.24013e-13 180.065 0 116Z" stroke="#D9D9D9" stroke-width="6.875" stroke-miterlimit="8" stroke-dasharray="55 20.625" fill="none" fill-rule="evenodd" transform="matrix(-1.83697e-16 -1 -1 1.83697e-16 3650.5 2309.5)"/><path d="M0 509C-6.48025e-14 227.887 227.887-6.48025e-14 509-1.29605e-13 790.113-2.5921e-13 1018 227.887 1018 509 1018 790.113 790.113 1018 509 1018 227.887 1018-3.24013e-13 790.113 0 509Z" stroke="#000000" stroke-width="6.875" stroke-miterlimit="8" fill="none" fill-rule="evenodd" transform="matrix(1 0 0 -1 3025.5 2309.5)"/><path d="M3531.5 1800.21 4148.61 1800.21 4148.61 1804.79 3531.5 1804.79ZM4144.02 1788.75 4171.52 1802.5 4144.02 1816.25Z"/><path d="M2.29167-1.24852e-06 2.29202 639.503-2.29132 639.503-2.29167 1.24852e-06ZM13.7503 634.92 0.000360892 662.42-13.7497 634.92Z" transform="matrix(1 0 0 -1 3533.5 1801.92)"/><text font-family="Poppins,Poppins_MSFontService,sans-serif" font-weight="400" font-size="83" transform="matrix(1 0 0 1 3450.36 2000)">|</text><text font-family="Poppins,Poppins_MSFontService,sans-serif" font-weight="400" font-size="83" transform="matrix(1 0 0 1 3474.42 2000)">+</text><text font-family="Cambria Math,Cambria Math_MSFontService,sans-serif" font-weight="400" font-size="83" transform="matrix(1 0 0 1 3530.57 2000)">⟩</text><path d="M1.59968-1.64096 215.989 207.354 212.789 210.636-1.59968 1.64096ZM220.705 195.95 230.799 224.992 201.509 215.641Z" transform="matrix(-1 0 0 1 3533.3 1799.5)"/><text font-family="Poppins,Poppins_MSFontService,sans-serif" font-weight="700" font-size="64" transform="matrix(1 0 0 1 3238.67 2094)">x</text><text font-family="Poppins,Poppins_MSFontService,sans-serif" font-weight="700" font-size="64" transform="matrix(1 0 0 1 3514.9 1096)">z</text><text font-family="Poppins,Poppins_MSFontService,sans-serif" font-weight="700" font-size="64" transform="matrix(1 0 0 1 4191.21 1820)">y</text><path d="M0 0 249.853 245.208" stroke="#D9D9D9" stroke-width="4.58333" stroke-miterlimit="8" stroke-dasharray="36.6667 13.75" fill="none" fill-rule="evenodd" transform="matrix(-1 0 0 1 3781.35 1560.5)"/><path d="M0 16C-2.03701e-15 7.16344 7.16344-2.03701e-15 16-4.07402e-15 24.8365-8.14805e-15 32 7.16344 32 16 32 24.8365 24.8365 32 16 32 7.16344 32-1.01851e-14 24.8365 0 16Z" stroke="#172C51" stroke-width="4.58333" stroke-miterlimit="8" fill="#66CCFF" fill-rule="evenodd" transform="matrix(1 0 0 -1 3404.5 1931.5)"/><path d="M0 16C-2.03701e-15 7.16344 7.16344-2.03701e-15 16-4.07402e-15 24.8365-8.14805e-15 32 7.16344 32 16 32 24.8365 24.8365 32 16 32 7.16344 32-1.01851e-14 24.8365 0 16Z" stroke="#172C51" stroke-width="4.58333" stroke-miterlimit="8" fill="#66CCFF" fill-rule="evenodd" transform="matrix(1 0 0 -1 3631.5 1700.5)"/><path d="M0 16C-2.03701e-15 7.16344 7.16344-2.03701e-15 16-4.07402e-15 24.8365-8.14805e-15 32 7.16344 32 16 32 24.8365 24.8365 32 16 32 7.16344 32-1.01851e-14 24.8365 0 16Z" stroke="#172C51" stroke-width="4.58333" stroke-miterlimit="8" fill="#66CCFF" fill-rule="evenodd" transform="matrix(1 0 0 -1 4027.5 1816.5)"/><path d="M0 16C-1.97335e-15 7.16344 6.93957-2.03701e-15 15.5-4.07402e-15 24.0604-8.14805e-15 30.9999 7.16344 30.9999 16 30.9999 24.8365 24.0604 32 15.5 32 6.93957 32-9.86676e-15 24.8365 0 16Z" stroke="#172C51" stroke-width="4.58333" stroke-miterlimit="8" fill="#66CCFF" fill-rule="evenodd" transform="matrix(1 0 0 -1 3008.5 1816.5)"/><path d="M0 16C-2.03701e-15 7.16344 7.16344-2.03701e-15 16-4.07402e-15 24.8365-8.14805e-15 32 7.16344 32 16 32 24.8365 24.8365 32 16 32 7.16344 32-1.01851e-14 24.8365 0 16Z" stroke="#172C51" stroke-width="4.58333" stroke-miterlimit="8" fill="#66CCFF" fill-rule="evenodd" transform="matrix(1 0 0 -1 3517.5 2325.5)"/><path d="M0 16C-2.03701e-15 7.16344 7.16344-2.03701e-15 16-4.07402e-15 24.8365-8.14805e-15 32 7.16344 32 16 32 24.8365 24.8365 32 16 32 7.16344 32-1.01851e-14 24.8365 0 16Z" stroke="#172C51" stroke-width="4.58333" stroke-miterlimit="8" fill="#66CCFF" fill-rule="evenodd" transform="matrix(1 0 0 -1 3517.5 1307.5)"/><text font-family="Poppins,Poppins_MSFontService,sans-serif" font-weight="400" font-size="83" transform="matrix(1 0 0 1 3687.07 1749)">|</text><text font-family="Poppins,Poppins_MSFontService,sans-serif" font-weight="400" font-size="83" transform="matrix(1 0 0 1 3711.13 1749)">-</text><text font-family="Cambria Math,Cambria Math_MSFontService,sans-serif" font-weight="400" font-size="83" transform="matrix(1 0 0 1 3756.39 1749)">⟩</text><text font-family="Poppins,Poppins_MSFontService,sans-serif" font-weight="400" font-size="83" transform="matrix(1 0 0 1 3580.48 2414)">|</text><text font-family="Poppins,Poppins_MSFontService,sans-serif" font-weight="400" font-size="83" transform="matrix(1 0 0 1 3604.55 2414)">1</text><text font-family="Cambria Math,Cambria Math_MSFontService,sans-serif" font-weight="400" font-size="83" transform="matrix(1 0 0 1 3630.9 2414)">⟩</text><text font-family="Poppins,Poppins_MSFontService,sans-serif" font-weight="400" font-size="83" transform="matrix(1 0 0 1 3566.13 1266)">|</text><text font-family="Poppins,Poppins_MSFontService,sans-serif" font-weight="400" font-size="83" transform="matrix(1 0 0 1 3590.19 1266)">0</text><text font-family="Cambria Math,Cambria Math_MSFontService,sans-serif" font-weight="400" font-size="83" transform="matrix(1 0 0 1 3641.75 1266)">⟩</text><text font-family="Poppins,Poppins_MSFontService,sans-serif" font-weight="400" font-size="83" transform="matrix(1 0 0 1 4088.69 1750)">|</text><text font-family="Poppins,Poppins_MSFontService,sans-serif" font-weight="400" font-size="83" transform="matrix(1 0 0 1 4112.75 1750)">i</text><text font-family="Cambria Math,Cambria Math_MSFontService,sans-serif" font-weight="400" font-size="83" transform="matrix(1 0 0 1 4132.8 1750)">⟩</text><text font-family="Poppins,Poppins_MSFontService,sans-serif" font-weight="400" font-size="83" transform="matrix(1 0 0 1 2878.96 1762)">|</text><text font-family="Poppins,Poppins_MSFontService,sans-serif" font-weight="400" font-size="83" transform="matrix(1 0 0 1 2903.02 1762)">-</text><text font-family="Poppins,Poppins_MSFontService,sans-serif" font-weight="400" font-size="83" transform="matrix(1 0 0 1 2948.28 1762)">i</text><text font-family="Cambria Math,Cambria Math_MSFontService,sans-serif" font-weight="400" font-size="83" transform="matrix(1 0 0 1 2968.33 1762)">⟩</text></g></svg>