<svg width="1749" height="539" xmlns="http://www.w3.org/2000/svg" xmlns:xlink="http://www.w3.org/1999/xlink" xml:space="preserve" overflow="hidden"><g transform="translate(-487 -1803)"><path d="M929.5 2058.5C929.5 2088.88 904.876 2113.5 874.5 2113.5 844.124 2113.5 819.5 2088.88 819.5 2058.5 819.5 2028.12 844.124 2003.5 874.5 2003.5 904.876 2003.5 929.5 2028.12 929.5 2058.5Z" stroke="#000000" stroke-width="6.875" stroke-miterlimit="8" fill="none" fill-rule="evenodd"/><path d="M874.5 2003.5 874.5 2113.73" stroke="#000000" stroke-width="6.875" stroke-miterlimit="8" fill="none" fill-rule="evenodd"/><path d="M0 0 662.736 0.000360892" stroke="#000000" stroke-width="6.875" stroke-miterlimit="8" fill="none" fill-rule="evenodd" transform="matrix(-1 0 0 1 1205.24 1837.5)"/><path d="M874.5 1837.5 874.5 2057.75" stroke="#000000" stroke-width="6.875" stroke-miterlimit="8" fill="none" fill-rule="evenodd"/><path d="M0 0 662.736 0.000360892" stroke="#000000" stroke-width="6.875" stroke-miterlimit="8" fill="none" fill-rule="evenodd" transform="matrix(-1 0 0 1 1208.24 2058.5)"/><path d="M845 1835C845 1818.98 857.76 1806 873.5 1806 889.24 1806 902 1818.98 902 1835 902 1851.02 889.24 1864 873.5 1864 857.76 1864 845 1851.02 845 1835Z" fill-rule="evenodd"/><path d="M1907.5 2058.5C1907.5 2088.88 1882.65 2113.5 1852 2113.5 1821.35 2113.5 1796.5 2088.88 1796.5 2058.5 1796.5 2028.12 1821.35 2003.5 1852 2003.5 1882.65 2003.5 1907.5 2028.12 1907.5 2058.5Z" stroke="#000000" stroke-width="6.875" stroke-miterlimit="8" fill="none" fill-rule="evenodd"/><path d="M1852.5 2003.5 1852.5 2113.73" stroke="#000000" stroke-width="6.875" stroke-miterlimit="8" fill="none" fill-rule="evenodd"/><path d="M0 0 662.736 0.000360892" stroke="#000000" stroke-width="6.875" stroke-miterlimit="8" fill="none" fill-rule="evenodd" transform="matrix(-1 0 0 1 2183.24 1837.5)"/><path d="M1852.5 1837.5 1852.5 2057.75" stroke="#000000" stroke-width="6.875" stroke-miterlimit="8" fill="none" fill-rule="evenodd"/><path d="M0 0 662.736 0.000360892" stroke="#000000" stroke-width="6.875" stroke-miterlimit="8" fill="none" fill-rule="evenodd" transform="matrix(-1 0 0 1 2186.24 2058.5)"/><path d="M1823.5 1835.5C1823.5 1819.48 1836.26 1806.5 1852 1806.5 1867.74 1806.5 1880.5 1819.48 1880.5 1835.5 1880.5 1851.52 1867.74 1864.5 1852 1864.5 1836.26 1864.5 1823.5 1851.52 1823.5 1835.5Z" stroke="#000000" stroke-width="6.875" stroke-miterlimit="8" fill="#FFFFFF" fill-rule="evenodd"/><text font-family="Poppins,Poppins_MSFontService,sans-serif" font-weight="700" font-size="64" transform="matrix(1 0 0 1 753.474 2285)">control</text><text font-family="Poppins,Poppins_MSFontService,sans-serif" font-weight="700" font-size="64" transform="matrix(1 0 0 1 1649.59 2285)">a</text><text font-family="Poppins,Poppins_MSFontService,sans-serif" font-weight="700" font-size="64" transform="matrix(1 0 0 1 1693.14 2285)">nti</text><text font-family="Poppins,Poppins_MSFontService,sans-serif" font-weight="700" font-size="64" transform="matrix(1 0 0 1 1780.79 2285)">-</text><text font-family="Poppins,Poppins_MSFontService,sans-serif" font-weight="700" font-size="64" transform="matrix(1 0 0 1 1818.03 2285)">control</text></g></svg>