<svg width="1083" height="986" xmlns="http://www.w3.org/2000/svg" xmlns:xlink="http://www.w3.org/1999/xlink" xml:space="preserve" overflow="hidden"><g transform="translate(-2200 -143)"><path d="M2200 683.469C2200 664.985 2214.98 650 2233.47 650L3244.53 650C3263.02 650 3278 664.985 3278 683.469L3278 1090.53C3278 1109.02 3263.02 1124 3244.53 1124L2233.47 1124C2214.98 1124 2200 1109.02 2200 1090.53Z" fill="#F2F2F2" fill-rule="evenodd"/><path d="M2200 176.469C2200 157.985 2214.98 143 2233.47 143L3244.53 143C3263.02 143 3278 157.985 3278 176.469L3278 583.531C3278 602.015 3263.02 617 3244.53 617L2233.47 617C2214.98 617 2200 602.015 2200 583.531Z" fill="#F2F2F2" fill-rule="evenodd"/><path d="M0 0 662.736 0.000360892" stroke="#000000" stroke-width="6.875" stroke-miterlimit="8" fill="none" fill-rule="evenodd" transform="matrix(-1 0 0 1 3082.24 297.5)"/><path d="M2750.5 242.5 2750.5 492.935" stroke="#000000" stroke-width="6.875" stroke-miterlimit="8" fill="none" fill-rule="evenodd"/><text font-family="CMU Serif,CMU Serif_MSFontService,sans-serif" font-weight="500" font-size="83" transform="matrix(1 0 0 1 2272.81 330)">|0</text><text font-family="Cambria Math,Cambria Math_MSFontService,sans-serif" font-weight="400" font-size="83" transform="matrix(1 0 0 1 2336.98 330)">⟩</text><text font-family="CMU Serif,CMU Serif_MSFontService,sans-serif" font-weight="500" font-size="83" transform="matrix(1 0 0 1 3134.15 330)">|0</text><text font-family="Cambria Math,Cambria Math_MSFontService,sans-serif" font-weight="400" font-size="83" transform="matrix(1 0 0 1 3198.31 330)">⟩</text><path d="M0 0 662.736 0.000360892" stroke="#000000" stroke-width="6.875" stroke-miterlimit="8" fill="none" fill-rule="evenodd" transform="matrix(-1 0 0 1 3085.24 518.5)"/><text font-family="CMU Serif,CMU Serif_MSFontService,sans-serif" font-weight="500" font-size="83" transform="matrix(1 0 0 1 2275.33 550)">|0</text><text font-family="Cambria Math,Cambria Math_MSFontService,sans-serif" font-weight="400" font-size="83" transform="matrix(1 0 0 1 2339.49 550)">⟩</text><text font-family="CMU Serif,CMU Serif_MSFontService,sans-serif" font-weight="500" font-size="83" transform="matrix(1 0 0 1 3136.66 550)">|0</text><text font-family="Cambria Math,Cambria Math_MSFontService,sans-serif" font-weight="400" font-size="83" transform="matrix(1 0 0 1 3200.83 550)">⟩</text><path d="M2722 521C2722 504.984 2734.76 492 2750.5 492 2766.24 492 2779 504.984 2779 521 2779 537.016 2766.24 550 2750.5 550 2734.76 550 2722 537.016 2722 521Z" fill-rule="evenodd"/><path d="M0 0 662.736 0.000360892" stroke="#000000" stroke-width="6.875" stroke-miterlimit="8" fill="none" fill-rule="evenodd" transform="matrix(-1 0 0 1 3085.24 805.5)"/><path d="M0 0 0.000360892 250.436" stroke="#000000" stroke-width="6.875" stroke-miterlimit="8" fill="none" fill-rule="evenodd" transform="matrix(-1 0 0 1 2753.5 750.5)"/><text font-family="CMU Serif,CMU Serif_MSFontService,sans-serif" font-weight="500" font-size="83" transform="matrix(1 0 0 1 2275.33 838)">|0</text><text font-family="Cambria Math,Cambria Math_MSFontService,sans-serif" font-weight="400" font-size="83" transform="matrix(1 0 0 1 2339.49 838)">⟩</text><text font-family="CMU Serif,CMU Serif_MSFontService,sans-serif" font-weight="500" font-size="83" transform="matrix(1 0 0 1 3136.66 838)">|1</text><text font-family="Cambria Math,Cambria Math_MSFontService,sans-serif" font-weight="400" font-size="83" transform="matrix(1 0 0 1 3200.83 838)">⟩</text><path d="M0 0 662.736 0.000360892" stroke="#000000" stroke-width="6.875" stroke-miterlimit="8" fill="none" fill-rule="evenodd" transform="matrix(-1 0 0 1 3087.24 1026.5)"/><text font-family="CMU Serif,CMU Serif_MSFontService,sans-serif" font-weight="500" font-size="83" transform="matrix(1 0 0 1 2277.84 1058)">|1</text><text font-family="Cambria Math,Cambria Math_MSFontService,sans-serif" font-weight="400" font-size="83" transform="matrix(1 0 0 1 2342.01 1058)">⟩</text><text font-family="CMU Serif,CMU Serif_MSFontService,sans-serif" font-weight="500" font-size="83" transform="matrix(1 0 0 1 3139.18 1058)">|1</text><text font-family="Cambria Math,Cambria Math_MSFontService,sans-serif" font-weight="400" font-size="83" transform="matrix(1 0 0 1 3203.34 1058)">⟩</text><path d="M2724 1029.5C2724 1013.76 2736.98 1001 2753 1001 2769.02 1001 2782 1013.76 2782 1029.5 2782 1045.24 2769.02 1058 2753 1058 2736.98 1058 2724 1045.24 2724 1029.5Z" fill-rule="evenodd"/><path d="M2808.5 805.5C2808.5 835.876 2783.88 860.5 2753.5 860.5 2723.12 860.5 2698.5 835.876 2698.5 805.5 2698.5 775.124 2723.12 750.5 2753.5 750.5 2783.88 750.5 2808.5 775.124 2808.5 805.5Z" stroke="#000000" stroke-width="6.875" stroke-miterlimit="8" fill="none" fill-rule="evenodd"/><path d="M2806.5 297.5C2806.5 327.876 2781.65 352.5 2751 352.5 2720.35 352.5 2695.5 327.876 2695.5 297.5 2695.5 267.124 2720.35 242.5 2751 242.5 2781.65 242.5 2806.5 267.124 2806.5 297.5Z" stroke="#000000" stroke-width="6.875" stroke-miterlimit="8" fill="none" fill-rule="evenodd"/></g></svg>