<svg width="669" height="410" xmlns="http://www.w3.org/2000/svg" xmlns:xlink="http://www.w3.org/1999/xlink" xml:space="preserve" overflow="hidden"><defs><clipPath id="clip0"><rect x="1598" y="1074" width="669" height="410"/></clipPath></defs><g clip-path="url(#clip0)" transform="translate(-1598 -1074)"><path d="M0 0 662.736 0.000360892" stroke="#000000" stroke-width="6.875" stroke-miterlimit="8" fill="none" fill-rule="evenodd" transform="matrix(-1 0 0 1 2264.24 1106.5)"/><path d="M1932.5 1106.5 1932.5 1326.75" stroke="#000000" stroke-width="6.875" stroke-miterlimit="8" fill="none" fill-rule="evenodd"/><path d="M0 0 662.736 0.000360892" stroke="#000000" stroke-width="6.875" stroke-miterlimit="8" fill="none" fill-rule="evenodd" transform="matrix(-1 0 0 1 2266.24 1326.5)"/><g><g><g><path d="M11.3 11.3 214.7 11.3 214.7 214.7 11.3 214.7Z" fill="#FFFFFF" transform="matrix(1 0 0 1 1819 1216)"/><path d="M9.03999 9.03999 9.03999 216.96" stroke="#1E1B4B" stroke-width="22.6" fill="none" transform="matrix(1 0 0 1 1819 1216)"/><path d="M11.3 11.3 214.7 11.3" stroke="#1E1B4B" stroke-width="2.26" fill="none" transform="matrix(1 0 0 1 1819 1216)"/><path d="M214.7 11.3 214.7 214.7" stroke="#1E1B4B" stroke-width="2.26" fill="none" transform="matrix(1 0 0 1 1819 1216)"/><path d="M11.3 214.7 214.7 214.7" stroke="#1E1B4B" stroke-width="2.26" fill="none" transform="matrix(1 0 0 1 1819 1216)"/></g></g></g><text font-family="CMU Serif,CMU Serif_MSFontService,sans-serif" font-weight="700" font-size="128" transform="matrix(1 0 0 1 1887.15 1368)">Z</text><path d="M1903 1103C1903 1086.98 1915.98 1074 1932 1074 1948.02 1074 1961 1086.98 1961 1103 1961 1119.02 1948.02 1132 1932 1132 1915.98 1132 1903 1119.02 1903 1103Z" fill-rule="evenodd"/></g></svg>