<svg width="1249" height="1295" xmlns="http://www.w3.org/2000/svg" xmlns:xlink="http://www.w3.org/1999/xlink" xml:space="preserve" overflow="hidden"><g transform="translate(-3012 -109)"><path d="M0 0 1018.22 0.000360892" stroke="#D9D9D9" stroke-width="6.875" stroke-miterlimit="8" fill="none" fill-rule="evenodd" transform="matrix(1 0 0 -1 3015.5 891.5)"/><path d="M0 0 0.000360892 1018.22" stroke="#D9D9D9" stroke-width="6.875" stroke-miterlimit="8" fill="none" fill-rule="evenodd" transform="matrix(1 0 0 -1 3524.5 1400.72)"/><path d="M0 116C-6.48025e-14 51.935 227.887-1.47683e-14 509-2.95367e-14 790.113-5.90734e-14 1018 51.935 1018 116 1018 180.065 790.113 232 509 232 227.887 232-3.24013e-13 180.065 0 116Z" stroke="#D9D9D9" stroke-width="6.875" stroke-miterlimit="8" stroke-dasharray="55 20.625" fill="none" fill-rule="evenodd" transform="matrix(1 0 0 -1 3015.5 1004.5)"/><path d="M0 116C-6.48025e-14 51.935 227.887-1.47683e-14 509-2.95367e-14 790.113-5.90734e-14 1018 51.935 1018 116 1018 180.065 790.113 232 509 232 227.887 232-3.24012e-13 180.065 0 116Z" stroke="#D9D9D9" stroke-width="6.875" stroke-miterlimit="8" stroke-dasharray="55 20.625" fill="none" fill-rule="evenodd" transform="matrix(-1.83697e-16 -1 -1 1.83697e-16 3640.5 1400.5)"/><path d="M0 509C-6.48025e-14 227.887 227.887-6.48025e-14 509-1.29605e-13 790.113-2.5921e-13 1018 227.887 1018 509 1018 790.113 790.113 1018 509 1018 227.887 1018-3.24013e-13 790.113 0 509Z" stroke="#000000" stroke-width="6.875" stroke-miterlimit="8" fill="none" fill-rule="evenodd" transform="matrix(1 0 0 -1 3015.5 1400.5)"/><path d="M3521.5 891.208 4138.61 891.209 4138.61 895.792 3521.5 895.792ZM4134.02 879.75 4161.52 893.5 4134.02 907.25Z"/><path d="M2.29167-1.24852e-06 2.29202 639.503-2.29132 639.503-2.29167 1.24852e-06ZM13.7503 634.92 0.000360892 662.42-13.7497 634.92Z" transform="matrix(1 0 0 -1 3523.5 893.92)"/><path d="M1.59968-1.64096 215.989 207.354 212.789 210.636-1.59968 1.64096ZM220.705 195.95 230.799 224.992 201.509 215.641Z" transform="matrix(-1 0 0 1 3524.3 890.5)"/><text font-family="Poppins,Poppins_MSFontService,sans-serif" font-weight="700" font-size="64" transform="matrix(1 0 0 1 3229.05 1185)">x</text><text font-family="Poppins,Poppins_MSFontService,sans-serif" font-weight="700" font-size="64" transform="matrix(1 0 0 1 3505.27 187)">z</text><text font-family="Poppins,Poppins_MSFontService,sans-serif" font-weight="700" font-size="64" transform="matrix(1 0 0 1 4181.59 911)">y</text><path d="M0 0 249.853 245.208" stroke="#D9D9D9" stroke-width="4.58333" stroke-miterlimit="8" stroke-dasharray="36.6667 13.75" fill="none" fill-rule="evenodd" transform="matrix(-1 0 0 1 3771.35 651.5)"/><path d="M0 156.507 18.3963 145.453 18.3963 154.826C59.6871 147.199 89.2421 115.255 89.2421 78.2535 89.2421 115.255 59.6871 147.199 18.3963 154.826L18.3963 164.199Z" fill-rule="evenodd" transform="matrix(-0.445312 0.895376 0.895376 0.445312 3408.67 682.868)"/><path d="M89.2422 78.2536C89.2422 35.0353 49.2871-1.05594e-14-1.05594e-14-1.05594e-14L0 0C49.2871-2.11188e-14 89.2422 35.0353 89.2422 78.2536Z" fill-rule="evenodd" transform="matrix(-0.445312 0.895376 0.895376 0.445312 3408.67 682.868)"/><path d="M89.2422 78.2536C89.2422 35.0353 49.2871-1.05594e-14-1.05594e-14-1.05594e-14L0 0C49.2871-2.11188e-14 89.2422 35.0353 89.2422 78.2536L89.2422 78.2536C89.2422 115.255 59.6872 147.199 18.3964 154.826L18.3963 164.199 0 156.507 18.3963 145.453 18.3963 154.826C59.6871 147.199 89.2421 115.255 89.2421 78.2535" stroke="#4338CA" stroke-width="10.3125" stroke-miterlimit="8" fill="none" fill-rule="evenodd" transform="matrix(-0.445312 0.895376 0.895376 0.445312 3408.67 682.868)"/><path d="M0 156.507 18.3963 145.453 18.3963 154.826C59.6871 147.199 89.2421 115.255 89.2421 78.2535 89.2421 115.255 59.6871 147.199 18.3963 154.826L18.3963 164.199Z" fill-rule="evenodd" transform="matrix(-0.445312 0.895376 0.895376 0.445312 3463.22 844.687)"/><path d="M89.2422 78.2536C89.2422 35.0353 49.2871-1.05594e-14-1.05594e-14-1.05594e-14L0 0C49.2871-2.11188e-14 89.2422 35.0353 89.2422 78.2536Z" fill-rule="evenodd" transform="matrix(-0.445312 0.895376 0.895376 0.445312 3463.22 844.687)"/><path d="M89.2422 78.2536C89.2422 35.0353 49.2871-1.05594e-14-1.05594e-14-1.05594e-14L0 0C49.2871-2.11188e-14 89.2422 35.0353 89.2422 78.2536L89.2422 78.2536C89.2422 115.255 59.6872 147.199 18.3964 154.826L18.3963 164.199 0 156.507 18.3963 145.453 18.3963 154.826C59.6871 147.199 89.2421 115.255 89.2421 78.2535" stroke="#4338CA" stroke-width="10.3125" stroke-miterlimit="8" fill="none" fill-rule="evenodd" transform="matrix(-0.445312 0.895376 0.895376 0.445312 3463.22 844.687)"/><path d="M0 156.507 18.3963 145.453 18.3963 154.826C59.6871 147.199 89.2421 115.255 89.2421 78.2535 89.2421 115.255 59.6871 147.199 18.3963 154.826L18.3963 164.199Z" fill-rule="evenodd" transform="matrix(-0.445312 0.895376 0.895376 0.445312 3524.31 1023.85)"/><path d="M89.2422 78.2536C89.2422 35.0353 49.2871-1.05594e-14-1.05594e-14-1.05594e-14L0 0C49.2871-2.11188e-14 89.2422 35.0353 89.2422 78.2536Z" fill-rule="evenodd" transform="matrix(-0.445312 0.895376 0.895376 0.445312 3524.31 1023.85)"/><path d="M89.2422 78.2536C89.2422 35.0353 49.2871-1.05594e-14-1.05594e-14-1.05594e-14L0 0C49.2871-2.11188e-14 89.2422 35.0353 89.2422 78.2536L89.2422 78.2536C89.2422 115.255 59.6872 147.199 18.3964 154.826L18.3963 164.199 0 156.507 18.3963 145.453 18.3963 154.826C59.6871 147.199 89.2421 115.255 89.2421 78.2535" stroke="#4338CA" stroke-width="10.3125" stroke-miterlimit="8" fill="none" fill-rule="evenodd" transform="matrix(-0.445312 0.895376 0.895376 0.445312 3524.31 1023.85)"/><path d="M3428.5 667.5 3634.04 1148.73" stroke="#000000" stroke-width="4.58333" stroke-miterlimit="8" fill="none" fill-rule="evenodd"/></g></svg>