<svg width="667" height="271" xmlns="http://www.w3.org/2000/svg" xmlns:xlink="http://www.w3.org/1999/xlink" xml:space="preserve" overflow="hidden"><g transform="translate(-383 -1723)"><path d="M0 0 662.736 0.000360892" stroke="#000000" stroke-width="6.875" stroke-miterlimit="8" fill="none" fill-rule="evenodd" transform="matrix(-1 0 0 1 1049.24 1837.5)"/><g><g><g><path d="M11.3 11.3 214.7 11.3 214.7 214.7 11.3 214.7Z" fill="#FFFFFF" transform="matrix(1.00442 0 0 1 604 1723)"/><path d="M9.04001 9.04001 9.04001 216.96" stroke="#1E1B4B" stroke-width="22.6" fill="none" transform="matrix(1.00442 0 0 1 604 1723)"/><path d="M11.3 11.3 214.7 11.3" stroke="#1E1B4B" stroke-width="2.26" fill="none" transform="matrix(1.00442 0 0 1 604 1723)"/><path d="M214.7 11.3 214.7 214.7" stroke="#1E1B4B" stroke-width="2.26" fill="none" transform="matrix(1.00442 0 0 1 604 1723)"/><path d="M11.3 214.7 214.7 214.7" stroke="#1E1B4B" stroke-width="2.26" fill="none" transform="matrix(1.00442 0 0 1 604 1723)"/></g></g></g><text font-family="CMU Serif,CMU Serif_MSFontService,sans-serif" font-weight="700" font-size="128" transform="matrix(1 0 0 1 689.135 1879)">I</text></g></svg>