<svg width="1125" height="767" xmlns="http://www.w3.org/2000/svg" xmlns:xlink="http://www.w3.org/1999/xlink" xml:space="preserve" overflow="hidden"><defs><clipPath id="clip0"><rect x="228" y="106" width="1125" height="767"/></clipPath></defs><g clip-path="url(#clip0)" transform="translate(-228 -106)"><path d="M228 160.157C228 130.247 252.247 106 282.157 106L1298.84 106C1328.75 106 1353 130.247 1353 160.157L1353 818.843C1353 848.753 1328.75 873 1298.84 873L282.157 873C252.247 873 228 848.753 228 818.843Z" fill="#F2F2F2" fill-rule="evenodd"/><path d="M0 0 662.736 0.000360892" stroke="#000000" stroke-width="6.875" stroke-miterlimit="8" fill="none" fill-rule="evenodd" transform="matrix(-1 0 0 1 1120.24 297.5)"/><text font-family="CMU Serif,CMU Serif_MSFontService,sans-serif" font-weight="500" font-size="83" transform="matrix(1 0 0 1 310.561 330)">|1</text><text font-family="Cambria Math,Cambria Math_MSFontService,sans-serif" font-weight="400" font-size="83" transform="matrix(1 0 0 1 374.727 330)">⟩</text><text font-family="CMU Serif,CMU Serif_MSFontService,sans-serif" font-weight="500" font-size="83" transform="matrix(1 0 0 1 1171.89 330)">|1</text><text font-family="Cambria Math,Cambria Math_MSFontService,sans-serif" font-weight="400" font-size="83" transform="matrix(1 0 0 1 1236.06 330)">⟩</text><path d="M0 0 662.736 0.000360892" stroke="#000000" stroke-width="6.875" stroke-miterlimit="8" fill="none" fill-rule="evenodd" transform="matrix(-1 0 0 1 1122.24 681.5)"/><text font-family="CMU Serif,CMU Serif_MSFontService,sans-serif" font-weight="500" font-size="83" transform="matrix(1 0 0 1 313.076 714)">|</text><text font-family="CMU Serif,CMU Serif_MSFontService,sans-serif" font-weight="500" font-size="83" transform="matrix(1 0 0 1 335.993 714)">0</text><text font-family="Cambria Math,Cambria Math_MSFontService,sans-serif" font-weight="400" font-size="83" transform="matrix(1 0 0 1 377.243 714)">⟩</text><text font-family="CMU Serif,CMU Serif_MSFontService,sans-serif" font-weight="500" font-size="83" transform="matrix(1 0 0 1 1174.41 714)">|</text><text font-family="CMU Serif,CMU Serif_MSFontService,sans-serif" font-weight="500" font-size="83" transform="matrix(1 0 0 1 1197.33 714)">0</text><text font-family="Cambria Math,Cambria Math_MSFontService,sans-serif" font-weight="400" font-size="83" transform="matrix(1 0 0 1 1238.58 714)">⟩</text><g><g><g><path d="M11.35 11.35 215.65 11.35 215.65 215.65 11.35 215.65Z" fill="#FFFFFF" transform="matrix(1 0 0 1 675 568)"/><path d="M9.08 9.08 9.08 217.92" stroke="#1E1B4B" stroke-width="22.7" fill="none" transform="matrix(1 0 0 1 675 568)"/><path d="M11.35 11.35 215.65 11.35" stroke="#1E1B4B" stroke-width="2.27" fill="none" transform="matrix(1 0 0 1 675 568)"/><path d="M215.65 11.35 215.65 215.65" stroke="#1E1B4B" stroke-width="2.27" fill="none" transform="matrix(1 0 0 1 675 568)"/><path d="M11.35 215.65 215.65 215.65" stroke="#1E1B4B" stroke-width="2.27" fill="none" transform="matrix(1 0 0 1 675 568)"/></g></g></g><text font-family="CMU Serif,CMU Serif_MSFontService,sans-serif" font-weight="700" font-size="128" transform="matrix(1 0 0 1 760.134 724)">I</text><g><g><g><path d="M11.3 11.3 214.7 11.3 214.7 214.7 11.3 214.7Z" fill="#FFFFFF" transform="matrix(1.00442 0 0 1 675 183)"/><path d="M9.04001 9.04001 9.04001 216.96" stroke="#1E1B4B" stroke-width="22.6" fill="none" transform="matrix(1.00442 0 0 1 675 183)"/><path d="M11.3 11.3 214.7 11.3" stroke="#1E1B4B" stroke-width="2.26" fill="none" transform="matrix(1.00442 0 0 1 675 183)"/><path d="M214.7 11.3 214.7 214.7" stroke="#1E1B4B" stroke-width="2.26" fill="none" transform="matrix(1.00442 0 0 1 675 183)"/><path d="M11.3 214.7 214.7 214.7" stroke="#1E1B4B" stroke-width="2.26" fill="none" transform="matrix(1.00442 0 0 1 675 183)"/></g></g></g><text font-family="CMU Serif,CMU Serif_MSFontService,sans-serif" font-weight="700" font-size="128" transform="matrix(1 0 0 1 760.134 339)">I</text></g></svg>