<!-- Made in Powerpoint -->
<svg width="1010" height="978" xmlns="http://www.w3.org/2000/svg" xmlns:xlink="http://www.w3.org/1999/xlink" xml:space="preserve" overflow="hidden"><defs><linearGradient x1="2621" y1="1351.5" x2="2621" y2="2192.5" gradientUnits="userSpaceOnUse" spreadMethod="reflect" id="fill0"><stop offset="0" stop-color="#66CCFF" stop-opacity="0.501961"/><stop offset="0.00558659" stop-color="#66CBFE" stop-opacity="0.50207"/><stop offset="0.0111732" stop-color="#67CBFE" stop-opacity="0.50218"/><stop offset="0.0167598" stop-color="#68CBFE" stop-opacity="0.502289"/><stop offset="0.0223464" stop-color="#68CBFE" stop-opacity="0.502399"/><stop offset="0.027933" stop-color="#69CBFE" stop-opacity="0.502509"/><stop offset="0.0335196" stop-color="#6ACBFE" stop-opacity="0.502618"/><stop offset="0.0391061" stop-color="#6BCBFE" stop-opacity="0.502728"/><stop offset="0.0446927" stop-color="#6BCBFE" stop-opacity="0.502837"/><stop offset="0.0502793" stop-color="#6CCBFE" stop-opacity="0.502947"/><stop offset="0.0558659" stop-color="#6DCBFE" stop-opacity="0.503056"/><stop offset="0.0614525" stop-color="#6DCBFE" stop-opacity="0.503166"/><stop offset="0.0670391" stop-color="#6ECAFE" stop-opacity="0.503275"/><stop offset="0.0726257" stop-color="#6FCAFE" stop-opacity="0.503385"/><stop offset="0.0782123" stop-color="#70CAFE" stop-opacity="0.503494"/><stop offset="0.0837989" stop-color="#70CAFE" stop-opacity="0.503604"/><stop offset="0.0893855" stop-color="#71CAFE" stop-opacity="0.503713"/><stop offset="0.0949721" stop-color="#72C9FE" stop-opacity="0.503823"/><stop offset="0.100559" stop-color="#72C9FE" stop-opacity="0.503933"/><stop offset="0.106145" stop-color="#73C9FD" stop-opacity="0.504042"/><stop offset="0.111732" stop-color="#74C9FD" stop-opacity="0.504152"/><stop offset="0.117318" stop-color="#74C8FD" stop-opacity="0.504261"/><stop offset="0.122905" stop-color="#75C8FD" stop-opacity="0.504371"/><stop offset="0.128492" stop-color="#76C8FD" stop-opacity="0.50448"/><stop offset="0.134078" stop-color="#76C7FD" stop-opacity="0.50459"/><stop offset="0.139665" stop-color="#77C7FD" stop-opacity="0.504699"/><stop offset="0.145251" stop-color="#78C7FD" stop-opacity="0.504809"/><stop offset="0.150838" stop-color="#78C6FC" stop-opacity="0.504918"/><stop offset="0.156425" stop-color="#79C6FC" stop-opacity="0.505028"/><stop offset="0.162011" stop-color="#7AC6FC" stop-opacity="0.505138"/><stop offset="0.167598" stop-color="#7AC5FC" stop-opacity="0.505247"/><stop offset="0.173184" stop-color="#7BC5FC" stop-opacity="0.505357"/><stop offset="0.178771" stop-color="#7BC4FC" stop-opacity="0.505466"/><stop offset="0.184358" stop-color="#7CC4FC" stop-opacity="0.505576"/><stop offset="0.189944" stop-color="#7DC4FB" stop-opacity="0.505685"/><stop offset="0.195531" stop-color="#7DC3FB" stop-opacity="0.505795"/><stop offset="0.201117" stop-color="#7EC3FB" stop-opacity="0.505904"/><stop offset="0.206704" stop-color="#7FC2FB" stop-opacity="0.506014"/><stop offset="0.21229" stop-color="#7FC2FB" stop-opacity="0.506123"/><stop offset="0.217877" stop-color="#80C1FA" stop-opacity="0.506233"/><stop offset="0.223464" stop-color="#80C1FA" stop-opacity="0.506342"/><stop offset="0.22905" stop-color="#81C0FA" stop-opacity="0.506452"/><stop offset="0.234637" stop-color="#81C0FA" stop-opacity="0.506562"/><stop offset="0.240223" stop-color="#82BFFA" stop-opacity="0.506671"/><stop offset="0.24581" stop-color="#83BFF9" stop-opacity="0.506781"/><stop offset="0.251397" stop-color="#83BEF9" stop-opacity="0.50689"/><stop offset="0.256983" stop-color="#84BDF9" stop-opacity="0.507"/><stop offset="0.26257" stop-color="#84BDF9" stop-opacity="0.507109"/><stop offset="0.268156" stop-color="#85BCF8" stop-opacity="0.507219"/><stop offset="0.273743" stop-color="#86BCF8" stop-opacity="0.507328"/><stop offset="0.27933" stop-color="#86BBF8" stop-opacity="0.507438"/><stop offset="0.284916" stop-color="#87BAF8" stop-opacity="0.507547"/><stop offset="0.290503" stop-color="#87BAF8" stop-opacity="0.507657"/><stop offset="0.296089" stop-color="#88B9F7" stop-opacity="0.507766"/><stop offset="0.301676" stop-color="#88B8F7" stop-opacity="0.507876"/><stop offset="0.307263" stop-color="#89B8F7" stop-opacity="0.507986"/><stop offset="0.312849" stop-color="#89B7F6" stop-opacity="0.508095"/><stop offset="0.318436" stop-color="#8AB6F6" stop-opacity="0.508205"/><stop offset="0.324022" stop-color="#8AB6F6" stop-opacity="0.508314"/><stop offset="0.329609" stop-color="#8BB5F6" stop-opacity="0.508424"/><stop offset="0.335196" stop-color="#8BB4F5" stop-opacity="0.508533"/><stop offset="0.340782" stop-color="#8CB4F5" stop-opacity="0.508643"/><stop offset="0.346369" stop-color="#8DB3F5" stop-opacity="0.508752"/><stop offset="0.351955" stop-color="#8DB2F4" stop-opacity="0.508862"/><stop offset="0.357542" stop-color="#8EB1F4" stop-opacity="0.508971"/><stop offset="0.363128" stop-color="#8EB1F4" stop-opacity="0.509081"/><stop offset="0.368715" stop-color="#8FB0F4" stop-opacity="0.509191"/><stop offset="0.374302" stop-color="#8FAFF3" stop-opacity="0.5093"/><stop offset="0.379888" stop-color="#90AEF3" stop-opacity="0.50941"/><stop offset="0.385475" stop-color="#90ADF3" stop-opacity="0.509519"/><stop offset="0.391061" stop-color="#90ADF2" stop-opacity="0.509629"/><stop offset="0.396648" stop-color="#91ACF2" stop-opacity="0.509738"/><stop offset="0.402235" stop-color="#91ABF2" stop-opacity="0.509848"/><stop offset="0.407821" stop-color="#92AAF1" stop-opacity="0.509957"/><stop offset="0.413408" stop-color="#92A9F1" stop-opacity="0.510067"/><stop offset="0.418994" stop-color="#93A8F1" stop-opacity="0.510176"/><stop offset="0.424581" stop-color="#93A7F0" stop-opacity="0.510286"/><stop offset="0.430168" stop-color="#94A6F0" stop-opacity="0.510396"/><stop offset="0.435754" stop-color="#94A6F0" stop-opacity="0.510505"/><stop offset="0.441341" stop-color="#95A5EF" stop-opacity="0.510615"/><stop offset="0.446927" stop-color="#95A4EF" stop-opacity="0.510724"/><stop offset="0.452514" stop-color="#96A3EE" stop-opacity="0.510834"/><stop offset="0.458101" stop-color="#96A2EE" stop-opacity="0.510943"/><stop offset="0.463687" stop-color="#96A1EE" stop-opacity="0.511053"/><stop offset="0.469274" stop-color="#97A0ED" stop-opacity="0.511162"/><stop offset="0.47486" stop-color="#979FED" stop-opacity="0.511272"/><stop offset="0.480447" stop-color="#989EED" stop-opacity="0.511381"/><stop offset="0.486034" stop-color="#989DEC" stop-opacity="0.511491"/><stop offset="0.49162" stop-color="#999CEC" stop-opacity="0.5116"/><stop offset="0.497207" stop-color="#999BEB" stop-opacity="0.51171"/><stop offset="0.502793" stop-color="#999AEB" stop-opacity="0.511819"/><stop offset="0.50838" stop-color="#9A99EB" stop-opacity="0.511929"/><stop offset="0.513967" stop-color="#9A98EA" stop-opacity="0.512039"/><stop offset="0.519553" stop-color="#9B97EA" stop-opacity="0.512148"/><stop offset="0.52514" stop-color="#9B96E9" stop-opacity="0.512258"/><stop offset="0.530726" stop-color="#9B95E9" stop-opacity="0.512367"/><stop offset="0.536313" stop-color="#9C94E8" stop-opacity="0.512477"/><stop offset="0.541899" stop-color="#9C92E8" stop-opacity="0.512586"/><stop offset="0.547486" stop-color="#9C91E8" stop-opacity="0.512696"/><stop offset="0.553073" stop-color="#9D90E7" stop-opacity="0.512805"/><stop offset="0.558659" stop-color="#9D8FE7" stop-opacity="0.512915"/><stop offset="0.564246" stop-color="#9E8EE6" stop-opacity="0.513024"/><stop offset="0.569832" stop-color="#9E8DE6" stop-opacity="0.513134"/><stop offset="0.575419" stop-color="#9E8CE5" stop-opacity="0.513244"/><stop offset="0.581006" stop-color="#9F8AE5" stop-opacity="0.513353"/><stop offset="0.586592" stop-color="#9F89E4" stop-opacity="0.513463"/><stop offset="0.592179" stop-color="#9F88E4" stop-opacity="0.513572"/><stop offset="0.597765" stop-color="#A087E3" stop-opacity="0.513682"/><stop offset="0.603352" stop-color="#A086E3" stop-opacity="0.513791"/><stop offset="0.608939" stop-color="#A084E2" stop-opacity="0.513901"/><stop offset="0.614525" stop-color="#A183E2" stop-opacity="0.51401"/><stop offset="0.620112" stop-color="#A182E2" stop-opacity="0.51412"/><stop offset="0.625698" stop-color="#A181E1" stop-opacity="0.514229"/><stop offset="0.631285" stop-color="#A280E1" stop-opacity="0.514339"/><stop offset="0.636872" stop-color="#A27EE0" stop-opacity="0.514448"/><stop offset="0.642458" stop-color="#A27DE0" stop-opacity="0.514558"/><stop offset="0.648045" stop-color="#A27CDF" stop-opacity="0.514668"/><stop offset="0.653631" stop-color="#A37ADF" stop-opacity="0.514777"/><stop offset="0.659218" stop-color="#A379DE" stop-opacity="0.514887"/><stop offset="0.664804" stop-color="#A378DD" stop-opacity="0.514996"/><stop offset="0.670391" stop-color="#A476DD" stop-opacity="0.515106"/><stop offset="0.675978" stop-color="#A475DC" stop-opacity="0.515215"/><stop offset="0.681564" stop-color="#A474DC" stop-opacity="0.515325"/><stop offset="0.687151" stop-color="#A472DB" stop-opacity="0.515434"/><stop offset="0.692737" stop-color="#A571DB" stop-opacity="0.515544"/><stop offset="0.698324" stop-color="#A570DA" stop-opacity="0.515653"/><stop offset="0.703911" stop-color="#A56EDA" stop-opacity="0.515763"/><stop offset="0.709497" stop-color="#A66DD9" stop-opacity="0.515873"/><stop offset="0.715084" stop-color="#A66CD9" stop-opacity="0.515982"/><stop offset="0.72067" stop-color="#A66AD8" stop-opacity="0.516092"/><stop offset="0.726257" stop-color="#A669D8" stop-opacity="0.516201"/><stop offset="0.731844" stop-color="#A667D7" stop-opacity="0.516311"/><stop offset="0.73743" stop-color="#A766D6" stop-opacity="0.51642"/><stop offset="0.743017" stop-color="#A764D6" stop-opacity="0.51653"/><stop offset="0.748603" stop-color="#A763D5" stop-opacity="0.516639"/><stop offset="0.75419" stop-color="#A761D5" stop-opacity="0.516749"/><stop offset="0.759777" stop-color="#A860D4" stop-opacity="0.516858"/><stop offset="0.765363" stop-color="#A85ED3" stop-opacity="0.516968"/><stop offset="0.77095" stop-color="#A85DD3" stop-opacity="0.517078"/><stop offset="0.776536" stop-color="#A85BD2" stop-opacity="0.517187"/><stop offset="0.782123" stop-color="#A85AD2" stop-opacity="0.517297"/><stop offset="0.787709" stop-color="#A958D1" stop-opacity="0.517406"/><stop offset="0.793296" stop-color="#A957D1" stop-opacity="0.517516"/><stop offset="0.798883" stop-color="#A955D0" stop-opacity="0.517625"/><stop offset="0.804469" stop-color="#A954CF" stop-opacity="0.517735"/><stop offset="0.810056" stop-color="#A952CF" stop-opacity="0.517844"/><stop offset="0.815642" stop-color="#AA51CE" stop-opacity="0.517954"/><stop offset="0.821229" stop-color="#AA4FCD" stop-opacity="0.518063"/><stop offset="0.826816" stop-color="#AA4DCD" stop-opacity="0.518173"/><stop offset="0.832402" stop-color="#AA4CCC" stop-opacity="0.518282"/><stop offset="0.837989" stop-color="#AA4ACC" stop-opacity="0.518392"/><stop offset="0.843575" stop-color="#AA49CB" stop-opacity="0.518502"/><stop offset="0.849162" stop-color="#AA47CA" stop-opacity="0.518611"/><stop offset="0.854749" stop-color="#AB45CA" stop-opacity="0.518721"/><stop offset="0.860335" stop-color="#AB44C9" stop-opacity="0.51883"/><stop offset="0.865922" stop-color="#AB42C8" stop-opacity="0.51894"/><stop offset="0.871508" stop-color="#AB40C8" stop-opacity="0.519049"/><stop offset="0.877095" stop-color="#AB3FC7" stop-opacity="0.519159"/><stop offset="0.882682" stop-color="#AB3DC6" stop-opacity="0.519268"/><stop offset="0.888268" stop-color="#AB3BC6" stop-opacity="0.519378"/><stop offset="0.893855" stop-color="#AB3AC5" stop-opacity="0.519487"/><stop offset="0.899441" stop-color="#AC38C4" stop-opacity="0.519597"/><stop offset="0.905028" stop-color="#AC36C4" stop-opacity="0.519706"/><stop offset="0.910615" stop-color="#AC34C3" stop-opacity="0.519816"/><stop offset="0.916201" stop-color="#AC33C2" stop-opacity="0.519926"/><stop offset="0.921788" stop-color="#AC31C2" stop-opacity="0.520035"/><stop offset="0.927374" stop-color="#AC2FC1" stop-opacity="0.520145"/><stop offset="0.932961" stop-color="#AC2DC0" stop-opacity="0.520254"/><stop offset="0.938547" stop-color="#AC2CBF" stop-opacity="0.520364"/><stop offset="0.944134" stop-color="#AC2ABF" stop-opacity="0.520473"/><stop offset="0.949721" stop-color="#AC28BE" stop-opacity="0.520583"/><stop offset="0.955307" stop-color="#AC26BD" stop-opacity="0.520692"/><stop offset="0.960894" stop-color="#AC24BD" stop-opacity="0.520802"/><stop offset="0.96648" stop-color="#AC23BC" stop-opacity="0.520911"/><stop offset="0.972067" stop-color="#AC21BB" stop-opacity="0.521021"/><stop offset="0.977654" stop-color="#AC1FBA" stop-opacity="0.521131"/><stop offset="0.98324" stop-color="#AC1DBA" stop-opacity="0.52124"/><stop offset="0.988827" stop-color="#AC1BB9" stop-opacity="0.52135"/><stop offset="0.994413" stop-color="#AC19B8" stop-opacity="0.521459"/><stop offset="1" stop-color="#AD18B8" stop-opacity="0.521569"/></linearGradient></defs><g transform="translate(-2195 -1217)"><path d="M2200.5 1772C2200.5 1539.76 2388.76 1351.5 2621 1351.5 2853.24 1351.5 3041.5 1539.76 3041.5 1772 3041.5 2004.24 2853.24 2192.5 2621 2192.5 2388.76 2192.5 2200.5 2004.24 2200.5 1772Z" stroke="#0D0D0D" stroke-width="4.58333" stroke-miterlimit="8" fill="url(#fill0)" fill-rule="evenodd"/><path d="M2197.5 1772.5C2197.5 1696.28 2385.99 1634.5 2618.5 1634.5 2851.01 1634.5 3039.5 1696.28 3039.5 1772.5 3039.5 1848.72 2851.01 1910.5 2618.5 1910.5 2385.99 1910.5 2197.5 1848.72 2197.5 1772.5Z" stroke="#7F7F7F" stroke-width="4.58333" stroke-miterlimit="8" stroke-dasharray="36.6667 13.75" fill="none" fill-rule="evenodd"/><path d="M2619.25 2192.82 2610.43 1268.44 2615.01 1268.39 2623.83 2192.78ZM2599.01 1273.13 2612.5 1245.5 2626.51 1272.87Z"/><path d="M2611.5 1781.21 3153.81 1781.21 3153.81 1785.79 2611.5 1785.79ZM3149.22 1769.75 3176.72 1783.5 3149.22 1797.25Z" fill="#7F7F7F"/><path d="M1.58873-1.65157 209.998 198.828 206.821 202.131-1.58873 1.65157ZM214.639 187.392 224.925 216.367 195.574 207.211Z" fill="#7F7F7F" transform="matrix(-1 0 0 1 2619.43 1780.5)"/><path d="M0 158.018 15.6666 148.339 15.6666 156.321C50.8304 148.62 75.9999 116.367 75.9999 79.0089 75.9999 116.367 50.8304 148.62 15.6666 156.321L15.6666 164.303Z" fill-rule="evenodd" transform="matrix(6.12323e-17 1 1 -6.12323e-17 2534 1759)"/><path d="M76 79.0089C76 35.3735 41.9736-1.0567e-14-1.0567e-14-1.0567e-14L0 0C41.9736-2.1134e-14 76 35.3735 76 79.0089Z" fill-rule="evenodd" transform="matrix(6.12323e-17 1 1 -6.12323e-17 2534 1759)"/><path d="M76 79.0089C76 35.3735 41.9736-1.0567e-14-1.0567e-14-1.0567e-14L0 0C41.9736-2.1134e-14 76 35.3735 76 79.0089L76 79.0089C76 116.367 50.8305 148.62 15.6666 156.321L15.6666 164.303 0 158.018 15.6666 148.339 15.6666 156.321C50.8304 148.62 75.9999 116.367 75.9999 79.0089" stroke="#000000" stroke-width="10.3125" stroke-miterlimit="8" fill="none" fill-rule="evenodd" transform="matrix(6.12323e-17 1 1 -6.12323e-17 2534 1759)"/><path d="M0 158.123 15.4605 148.548 15.4605 156.425C50.1616 148.719 74.9999 116.445 74.9999 79.0614 74.9999 116.445 50.1616 148.719 15.4605 156.425L15.4605 164.302Z" fill-rule="evenodd" transform="matrix(6.12323e-17 1 1 -6.12323e-17 2533 1490)"/><path d="M74.9999 79.0613C74.9999 35.397 41.4213-2.1134e-14-1.0567e-14-2.1134e-14L0 0C41.4213-1.0567e-14 74.9999 35.397 74.9999 79.0613Z" fill-rule="evenodd" transform="matrix(6.12323e-17 1 1 -6.12323e-17 2533 1490)"/><path d="M74.9999 79.0613C74.9999 35.397 41.4213-2.1134e-14-1.0567e-14-2.1134e-14L0 0C41.4213-1.0567e-14 74.9999 35.397 74.9999 79.0613L74.9999 79.0613C74.9999 116.445 50.1616 148.718 15.4605 156.425L15.4605 164.302 0 158.123 15.4605 148.548 15.4605 156.425C50.1616 148.719 74.9999 116.445 74.9999 79.0614" stroke="#000000" stroke-width="10.3125" stroke-miterlimit="8" fill="none" fill-rule="evenodd" transform="matrix(6.12323e-17 1 1 -6.12323e-17 2533 1490)"/><path d="M0 158.123 15.4605 148.548 15.4605 156.425C50.1616 148.719 74.9999 116.445 74.9999 79.0614 74.9999 116.445 50.1616 148.719 15.4605 156.425L15.4605 164.302Z" fill-rule="evenodd" transform="matrix(6.12323e-17 1 1 -6.12323e-17 2532 2020)"/><path d="M74.9999 79.0613C74.9999 35.397 41.4213-2.1134e-14-1.0567e-14-2.1134e-14L0 0C41.4213-1.0567e-14 74.9999 35.397 74.9999 79.0613Z" fill-rule="evenodd" transform="matrix(6.12323e-17 1 1 -6.12323e-17 2532 2020)"/><path d="M74.9999 79.0613C74.9999 35.397 41.4213-2.1134e-14-1.0567e-14-2.1134e-14L0 0C41.4213-1.0567e-14 74.9999 35.397 74.9999 79.0613L74.9999 79.0613C74.9999 116.445 50.1616 148.718 15.4605 156.425L15.4605 164.302 0 158.123 15.4605 148.548 15.4605 156.425C50.1616 148.719 74.9999 116.445 74.9999 79.0614" stroke="#000000" stroke-width="10.3125" stroke-miterlimit="8" fill="none" fill-rule="evenodd" transform="matrix(6.12323e-17 1 1 -6.12323e-17 2532 2020)"/></g></svg>