<svg width="1250" height="1296" xmlns="http://www.w3.org/2000/svg" xmlns:xlink="http://www.w3.org/1999/xlink" xml:space="preserve" overflow="hidden"><g transform="translate(-3000 -102)"><path d="M0 0 1018.22 0.000360892" stroke="#D9D9D9" stroke-width="6.875" stroke-miterlimit="8" fill="none" fill-rule="evenodd" transform="matrix(1 0 0 -1 3003.5 885.5)"/><path d="M0 0 0.000360892 1018.22" stroke="#D9D9D9" stroke-width="6.875" stroke-miterlimit="8" fill="none" fill-rule="evenodd" transform="matrix(1 0 0 -1 3513.5 1394.72)"/><path d="M0 116C-6.48662e-14 51.935 228.111-1.47683e-14 509.5-2.95367e-14 790.889-5.90734e-14 1019 51.935 1019 116 1019 180.065 790.889 232 509.5 232 228.111 232-3.24331e-13 180.065 0 116Z" stroke="#D9D9D9" stroke-width="6.875" stroke-miterlimit="8" stroke-dasharray="55 20.625" fill="none" fill-rule="evenodd" transform="matrix(1 0 0 -1 3003.5 998.5)"/><path d="M0 116C-6.48025e-14 51.935 227.887-1.47683e-14 509-2.95367e-14 790.113-5.90734e-14 1018 51.935 1018 116 1018 180.065 790.113 232 509 232 227.887 232-3.24013e-13 180.065 0 116Z" stroke="#D9D9D9" stroke-width="6.875" stroke-miterlimit="8" stroke-dasharray="55 20.625" fill="none" fill-rule="evenodd" transform="matrix(-1.83697e-16 -1 -1 1.83697e-16 3629.5 1394.5)"/><path d="M0 509C-6.48662e-14 227.887 228.111-6.48025e-14 509.5-1.29605e-13 790.889-2.5921e-13 1019 227.887 1019 509 1019 790.113 790.889 1018 509.5 1018 228.111 1018-3.24331e-13 790.113 0 509Z" stroke="#000000" stroke-width="6.875" stroke-miterlimit="8" fill="none" fill-rule="evenodd" transform="matrix(1 0 0 -1 3003.5 1394.5)"/><path d="M3509.5 885.208 4126.61 885.209 4126.61 889.792 3509.5 889.792ZM4122.02 873.75 4149.52 887.5 4122.02 901.25Z"/><path d="M2.29167-1.24852e-06 2.29202 639.503-2.29132 639.503-2.29167 1.24852e-06ZM13.7503 634.92 0.000360892 662.42-13.7497 634.92Z" transform="matrix(1 0 0 -1 3512.5 887.92)"/><path d="M1.59968-1.64096 215.989 207.354 212.789 210.636-1.59968 1.64096ZM220.705 195.95 230.799 224.992 201.509 215.641Z" transform="matrix(-1 0 0 1 3512.3 884.5)"/><text font-family="Poppins,Poppins_MSFontService,sans-serif" font-weight="700" font-size="64" transform="matrix(1 0 0 1 3217.59 1179)">x</text><text font-family="Poppins,Poppins_MSFontService,sans-serif" font-weight="700" font-size="64" transform="matrix(1 0 0 1 3493.81 181)">z</text><text font-family="Poppins,Poppins_MSFontService,sans-serif" font-weight="700" font-size="64" transform="matrix(1 0 0 1 4170.13 905)">y</text><path d="M0 0 249.853 245.208" stroke="#D9D9D9" stroke-width="4.58333" stroke-miterlimit="8" stroke-dasharray="36.6667 13.75" fill="none" fill-rule="evenodd" transform="matrix(-1 0 0 1 3759.35 645.5)"/><path d="M0 158.123 15.4605 148.548 15.4605 156.425C50.1616 148.719 74.9999 116.445 74.9999 79.0614 74.9999 116.445 50.1616 148.719 15.4605 156.425L15.4605 164.302Z" fill-rule="evenodd" transform="matrix(6.12323e-17 1 1 -6.12323e-17 3436 880)"/><path d="M74.9999 79.0613C74.9999 35.397 41.4213-2.1134e-14-1.0567e-14-2.1134e-14L0 0C41.4213-1.0567e-14 74.9999 35.397 74.9999 79.0613Z" fill-rule="evenodd" transform="matrix(6.12323e-17 1 1 -6.12323e-17 3436 880)"/><path d="M74.9999 79.0613C74.9999 35.397 41.4213-2.1134e-14-1.0567e-14-2.1134e-14L0 0C41.4213-1.0567e-14 74.9999 35.397 74.9999 79.0613L74.9999 79.0613C74.9999 116.445 50.1616 148.718 15.4605 156.425L15.4605 164.302 0 158.123 15.4605 148.548 15.4605 156.425C50.1616 148.719 74.9999 116.445 74.9999 79.0614" stroke="#4338CA" stroke-width="10.3125" stroke-miterlimit="8" fill="none" fill-rule="evenodd" transform="matrix(6.12323e-17 1 1 -6.12323e-17 3436 880)"/><path d="M0 158.123 15.4605 148.548 15.4605 156.425C50.1616 148.719 74.9999 116.445 74.9999 79.0614 74.9999 116.445 50.1616 148.719 15.4605 156.425L15.4605 164.302Z" fill-rule="evenodd" transform="matrix(6.12323e-17 1 1 -6.12323e-17 3434 610)"/><path d="M74.9999 79.0613C74.9999 35.397 41.4213-2.1134e-14-1.0567e-14-2.1134e-14L0 0C41.4213-1.0567e-14 74.9999 35.397 74.9999 79.0613Z" fill-rule="evenodd" transform="matrix(6.12323e-17 1 1 -6.12323e-17 3434 610)"/><path d="M74.9999 79.0613C74.9999 35.397 41.4213-2.1134e-14-1.0567e-14-2.1134e-14L0 0C41.4213-1.0567e-14 74.9999 35.397 74.9999 79.0613L74.9999 79.0613C74.9999 116.445 50.1616 148.718 15.4605 156.425L15.4605 164.302 0 158.123 15.4605 148.548 15.4605 156.425C50.1616 148.719 74.9999 116.445 74.9999 79.0614" stroke="#4338CA" stroke-width="10.3125" stroke-miterlimit="8" fill="none" fill-rule="evenodd" transform="matrix(6.12323e-17 1 1 -6.12323e-17 3434 610)"/><path d="M0 158.123 15.4605 148.548 15.4605 156.425C50.1616 148.719 74.9999 116.445 74.9999 79.0614 74.9999 116.445 50.1616 148.719 15.4605 156.425L15.4605 164.302Z" fill-rule="evenodd" transform="matrix(6.12323e-17 1 1 -6.12323e-17 3434 1140)"/><path d="M74.9999 79.0613C74.9999 35.397 41.4213-2.1134e-14-1.0567e-14-2.1134e-14L0 0C41.4213-1.0567e-14 74.9999 35.397 74.9999 79.0613Z" fill-rule="evenodd" transform="matrix(6.12323e-17 1 1 -6.12323e-17 3434 1140)"/><path d="M74.9999 79.0613C74.9999 35.397 41.4213-2.1134e-14-1.0567e-14-2.1134e-14L0 0C41.4213-1.0567e-14 74.9999 35.397 74.9999 79.0613L74.9999 79.0613C74.9999 116.445 50.1616 148.718 15.4605 156.425L15.4605 164.302 0 158.123 15.4605 148.548 15.4605 156.425C50.1616 148.719 74.9999 116.445 74.9999 79.0614" stroke="#4338CA" stroke-width="10.3125" stroke-miterlimit="8" fill="none" fill-rule="evenodd" transform="matrix(6.12323e-17 1 1 -6.12323e-17 3434 1140)"/></g></svg>