<svg width="1249" height="1296" xmlns="http://www.w3.org/2000/svg" xmlns:xlink="http://www.w3.org/1999/xlink" xml:space="preserve" overflow="hidden"><g transform="translate(-216 -104)"><path d="M0 0 1018.22 0.000360892" stroke="#D9D9D9" stroke-width="6.875" stroke-miterlimit="8" fill="none" fill-rule="evenodd" transform="matrix(1 0 0 -1 219.5 887.5)"/><path d="M0 0 0.000360892 1018.22" stroke="#D9D9D9" stroke-width="6.875" stroke-miterlimit="8" fill="none" fill-rule="evenodd" transform="matrix(1 0 0 -1 728.5 1396.72)"/><path d="M0 116C-6.48025e-14 51.935 227.887-1.47683e-14 509-2.95367e-14 790.113-5.90734e-14 1018 51.935 1018 116 1018 180.065 790.113 232 509 232 227.887 232-3.24012e-13 180.065 0 116Z" stroke="#D9D9D9" stroke-width="6.875" stroke-miterlimit="8" stroke-dasharray="55 20.625" fill="none" fill-rule="evenodd" transform="matrix(1 0 0 -1 219.5 1000.5)"/><path d="M0 116C-6.48025e-14 51.935 227.887-1.47683e-14 509-2.95367e-14 790.113-5.90734e-14 1018 51.935 1018 116 1018 180.065 790.113 232 509 232 227.887 232-3.24013e-13 180.065 0 116Z" stroke="#D9D9D9" stroke-width="6.875" stroke-miterlimit="8" stroke-dasharray="55 20.625" fill="none" fill-rule="evenodd" transform="matrix(-1.83697e-16 -1 -1 1.83697e-16 844.5 1396.5)"/><path d="M0 509C-6.48025e-14 227.887 227.887-6.48025e-14 509-1.29605e-13 790.113-2.5921e-13 1018 227.887 1018 509 1018 790.113 790.113 1018 509 1018 227.887 1018-3.24012e-13 790.113 0 509Z" stroke="#000000" stroke-width="6.875" stroke-miterlimit="8" fill="none" fill-rule="evenodd" transform="matrix(1 0 0 -1 219.5 1396.5)"/><path d="M725.5 887.208 1342.61 887.209 1342.61 891.792 725.5 891.792ZM1338.03 875.75 1365.53 889.5 1338.03 903.25Z"/><path d="M2.29167-1.24852e-06 2.29202 639.503-2.29132 639.503-2.29167 1.24852e-06ZM13.7503 634.92 0.000360892 662.42-13.7497 634.92Z" transform="matrix(1 0 0 -1 728.5 888.92)"/><path d="M1.59968-1.64096 215.989 207.354 212.789 210.636-1.59968 1.64096ZM220.705 195.95 230.799 224.992 201.509 215.641Z" transform="matrix(-1 0 0 1 728.299 886.5)"/><text font-family="Poppins,Poppins_MSFontService,sans-serif" font-weight="700" font-size="64" transform="matrix(1 0 0 1 433.112 1181)">x</text><text font-family="Poppins,Poppins_MSFontService,sans-serif" font-weight="700" font-size="64" transform="matrix(1 0 0 1 709.334 183)">z</text><text font-family="Poppins,Poppins_MSFontService,sans-serif" font-weight="700" font-size="64" transform="matrix(1 0 0 1 1385.65 907)">y</text><path d="M0 0 249.853 245.208" stroke="#D9D9D9" stroke-width="4.58333" stroke-miterlimit="8" stroke-dasharray="36.6667 13.75" fill="none" fill-rule="evenodd" transform="matrix(-1 0 0 1 975.354 647.5)"/><path d="M0 156.652 18.3464 145.623 18.3464 154.97C59.5252 147.335 89 115.362 89 78.326 89 115.362 59.5252 147.335 18.3464 154.97L18.3464 164.318Z" fill-rule="evenodd" transform="matrix(1 0 0 -1 597 1083)"/><path d="M89 78.3263C89 35.0679 49.1534-1.0567e-14-1.0567e-14 0L0 0C49.1534-2.1134e-14 89 35.0679 89 78.3263Z" fill-rule="evenodd" transform="matrix(1 0 0 -1 597 1083)"/><path d="M89 78.3263C89 35.0679 49.1534-1.0567e-14-1.0567e-14 0L0 0C49.1534-2.1134e-14 89 35.0679 89 78.3263L89 78.3263C89 115.362 59.5252 147.336 18.3465 154.97L18.3464 164.318 0 156.652 18.3464 145.623 18.3464 154.97C59.5252 147.335 89 115.362 89 78.326" stroke="#4338CA" stroke-width="10.3125" stroke-miterlimit="8" fill="none" fill-rule="evenodd" transform="matrix(1 0 0 -1 597 1083)"/><path d="M0 156.652 18.3464 145.623 18.3464 154.97C59.5252 147.335 89 115.362 89 78.326 89 115.362 59.5252 147.335 18.3464 154.97L18.3464 164.318Z" fill-rule="evenodd" transform="matrix(1 0 0 -1 717 962)"/><path d="M89 78.3263C89 35.0679 49.1534-1.0567e-14-1.0567e-14 0L0 0C49.1534-2.1134e-14 89 35.0679 89 78.3263Z" fill-rule="evenodd" transform="matrix(1 0 0 -1 717 962)"/><path d="M89 78.3263C89 35.0679 49.1534-1.0567e-14-1.0567e-14 0L0 0C49.1534-2.1134e-14 89 35.0679 89 78.3263L89 78.3263C89 115.362 59.5252 147.336 18.3465 154.97L18.3464 164.318 0 156.652 18.3464 145.623 18.3464 154.97C59.5252 147.335 89 115.362 89 78.326" stroke="#4338CA" stroke-width="10.3125" stroke-miterlimit="8" fill="none" fill-rule="evenodd" transform="matrix(1 0 0 -1 717 962)"/><path d="M0 156.652 18.3464 145.622 18.3464 154.97C59.525 147.335 88.9998 115.361 88.9998 78.3258 88.9998 115.361 59.525 147.335 18.3464 154.97L18.3464 164.317Z" fill-rule="evenodd" transform="matrix(1 0 0 -1 837 842)"/><path d="M88.9998 78.3261C88.9998 35.0678 49.1533-1.0567e-14-1.0567e-14 0L0 0C49.1533-2.1134e-14 88.9998 35.0678 88.9998 78.3261Z" fill-rule="evenodd" transform="matrix(1 0 0 -1 837 842)"/><path d="M88.9998 78.3261C88.9998 35.0678 49.1533-1.0567e-14-1.0567e-14 0L0 0C49.1533-2.1134e-14 88.9998 35.0678 88.9998 78.3261L88.9998 78.3261C88.9998 115.362 59.5251 147.335 18.3465 154.97L18.3464 164.317 0 156.652 18.3464 145.622 18.3464 154.97C59.525 147.335 88.9998 115.361 88.9998 78.3258" stroke="#4338CA" stroke-width="10.3125" stroke-miterlimit="8" fill="none" fill-rule="evenodd" transform="matrix(1 0 0 -1 837 842)"/></g></svg>