<svg width="1937" height="1351" xmlns="http://www.w3.org/2000/svg" xmlns:xlink="http://www.w3.org/1999/xlink" xml:space="preserve" overflow="hidden"><g transform="translate(-1073 -661)"><path d="M777.807 147.512C786.572 134.975 800.903 118.633 845.712 130.101L845.712 130.101C859.062 140.055 936.568 203.058 967.718 219.39 998.868 235.722 1009.99 231.957 1032.61 228.092 1055.23 224.227 1092.88 210.407 1103.42 196.201 1113.97 181.995 1103.42 151.168 1095.88 142.857 1088.33 134.546 1070.53 143.05 1058.15 146.336 1045.77 149.622 1033.09 162.668 1021.58 162.571 1010.07 162.474 1013.26 161.508 989.079 145.756 964.894 130.004 912.365 82.7482 876.475 68.0592 840.585 53.3703 808.565 52.4037 773.739 57.6222 738.913 62.8407 694.026 93.3782 667.52 99.3699 641.013 105.362 614.7 93.5715 614.7 93.5715 587.13 90.4791 542.049 76.1767 502.096 80.8154 462.143 85.4541 406.712 119.084 374.982 121.403 343.252 123.723 330.966 110.387 311.715 94.7312 292.464 79.0759 276.792 43.2232 259.476 27.4712 242.16 11.7193 220.297-1.90662 207.817 0.219447 195.338 2.34551 185.955 17.2275 184.6 40.2274 183.246 63.2273 203.077 108.937 199.691 138.218 196.306 167.5 176.474 196.008 164.285 215.915 152.096 235.823 149.387 247.033 126.557 257.663 103.727 268.293 48.2955 268.97 27.3032 279.696 6.31084 290.423-2.49249 307.335 0.603188 322.024 3.69887 336.712 22.9497 353.431 45.8768 367.83 68.8039 382.229 119.205 398.078 138.166 408.418 157.126 418.758 145.324 424.266 159.642 429.872 173.959 435.477 198.24 440.212 224.069 442.048 249.899 443.884 289.755 443.498 314.617 440.888 339.479 438.279 332.514 428.809 373.241 426.393 413.968 423.977 482.845 427.552 558.979 426.393 635.112 425.233 830.041 419.435 830.041 419.435L1085.43 421.754C1150.83 425.813 1194.26 446.3 1222.41 443.787 1250.56 441.275 1253.76 416.439 1254.34 406.678 1254.92 396.918 1223.86 389.864 1225.9 385.225 1227.93 380.586 1256.37 381.166 1266.53 378.847 1276.68 376.527 1282.97 378.847 1286.84 371.309 1290.71 363.771 1294.58 344.637 1289.74 333.62 1284.91 322.604 1275.81 310.33 1257.82 305.209 1239.83 300.087 1203.74 301.633 1181.78 302.889 1159.82 304.146 1157.21 316.032 1126.06 312.746 1094.91 309.461 1042.38 303.083 994.883 283.175 947.385 263.268 877.248 215.912 841.069 193.302 804.889 170.692 797.519 176.904 777.807 147.512Z" stroke="#7F7F7F" stroke-width="4.58333" stroke-miterlimit="8" fill="#000000" fill-rule="evenodd" fill-opacity="0.25098" transform="matrix(-1 0 0 1 3007.5 1565.5)"/><path d="M88 36.6659C87.9697 38.2753 59.5305 53.6414 52.8158 62.3571 46.1011 71.0728 48.8962 89.9922 47.7114 88.9596 46.5265 87.9271 48.7747 65.0904 45.7061 56.1621 44.939 53.9302 43.7845 51.5633 42.5031 49.2595L39.1775 43.7858 39.3082 43.7277 39.4944 41.8667 40.9094 43.8519C44.2477 48.1831 48.5471 52.6091 52.9982 52.7002 61.9007 52.8825 88.0303 35.0565 88 36.6659ZM29.7288 0.274087C32.9219-1.87408 36.2379 9.17342 36.7292 13.531 37.2205 17.8887 32.1849 22.0011 32.6762 26.42 33.1675 30.8389 39.124 36.915 39.6766 40.0452L39.4944 41.8667 36.7235 37.9799C35.636 36.4152 34.8895 35.4284 34.5857 35.5726 33.978 35.8611 35.991 38.7764 38.5395 42.7355L39.1775 43.7858 35.9922 45.2007C32.6149 45.3848 24.4478 40.168 19.4125 41.15 14.3772 42.1321 4.55208 52.5044 1.72735 51.4611-1.09737 50.4178-0.176387 39.0634 2.46414 34.8899 5.10466 30.7163 13.0262 32.1894 17.5703 26.42 22.1143 20.6507 26.5357 2.42225 29.7288 0.274087Z" stroke="#7F7F7F" stroke-width="4.58333" stroke-miterlimit="8" fill="#000000" fill-rule="evenodd" fill-opacity="0.25098" transform="matrix(-1 0 0 1 2698.5 1864.5)"/><path d="M2.36521 0.0471261C4.39078-1.05941 21.6709 17.6601 33.5076 18.4729 45.3442 19.2859 72.541 3.63733 73.3849 4.92443 74.2288 6.21153 38.9722 19.6697 38.5713 26.1955 38.1704 32.7214 72.2034 43.831 70.9796 44.0795 69.7558 44.328 43.0443 27.6407 31.2288 27.6858 19.4133 27.7309 1.73216 44.7795 0.0864898 44.3504-1.55918 43.9214 20.8059 32.3375 21.3545 25.1116 21.9031 17.8858 0.339646 1.15366 2.36521 0.0471261Z" stroke="#7F7F7F" stroke-width="4.58333" stroke-miterlimit="8" fill="#000000" fill-rule="evenodd" fill-opacity="0.25098" transform="matrix(-0.568546 -0.822651 -0.822651 0.568546 2716.08 1826.15)"/><path d="M2.36521 0.0471261C4.39078-1.05941 21.6709 17.6601 33.5076 18.4729 45.3442 19.2859 72.541 3.63733 73.3849 4.92443 74.2288 6.21153 38.9722 19.6697 38.5713 26.1955 38.1704 32.7214 72.2034 43.831 70.9796 44.0795 69.7558 44.328 43.0443 27.6407 31.2288 27.6858 19.4133 27.7309 1.73216 44.7795 0.0864898 44.3504-1.55918 43.9214 20.8059 32.3375 21.3545 25.1116 21.9031 17.8858 0.339646 1.15366 2.36521 0.0471261Z" stroke="#7F7F7F" stroke-width="4.58333" stroke-miterlimit="8" fill="#000000" fill-rule="evenodd" fill-opacity="0.25098" transform="matrix(-0.568546 -0.822651 -0.822651 0.568546 2794.3 1924.73)"/><path d="M356.837 575.524C379.431 617.201 360.309 586.139 378.829 585.946 397.349 585.753 424.358 578.033 467.957 574.366 511.556 570.699 569.624 557.961 640.425 563.944 711.225 569.927 826.204 598.877 892.76 610.264 959.317 621.651 1000.41 636.319 1039.76 632.266 1079.12 628.214 1105.93 601.193 1128.89 585.946 1151.85 570.699 1162.27 550.047 1177.51 540.784 1192.75 531.52 1199.69 549.276 1220.33 530.361 1240.98 511.447 1284.77 442.16 1301.36 427.299 1317.95 412.437 1317.95 426.333 1319.88 441.195 1321.81 456.056 1308.88 501.99 1312.93 516.465 1316.98 530.94 1330.3 521.097 1344.19 528.045 1358.08 534.993 1384.89 546.38 1396.27 558.154 1407.66 569.927 1402.64 584.402 1412.48 598.684 1422.32 612.966 1448.17 632.266 1455.31 643.846 1462.44 655.426 1458.01 659.866 1455.31 668.165 1452.61 676.464 1447.78 683.798 1439.1 693.641 1430.42 703.484 1420 722.784 1403.22 727.223 1386.44 731.663 1362.51 713.52 1338.4 720.275 1314.28 727.03 1273.19 753.664 1258.53 767.754 1243.87 781.843 1251.97 777.404 1250.43 804.81 1248.89 832.217 1237.12 880.66 1249.27 932.191 1261.42 983.723 1300.97 1069.04 1323.35 1114 1345.73 1158.96 1366.29 1176.53 1383.54 1201.97 1400.79 1227.41 1415.53 1254.09 1426.86 1266.65 1438.19 1279.2 1442.08 1274.87 1451.52 1277.31 1460.96 1279.76 1478.51 1275.87 1483.51 1281.31 1488.51 1286.76 1488.4 1301.21 1481.51 1309.98 1474.62 1318.76 1456.29 1332.21 1442.19 1333.99 1428.08 1335.76 1413.75 1331.1 1396.87 1320.65 1379.99 1310.21 1362.44 1294.43 1340.89 1271.31 1319.34 1248.2 1296.35 1211.97 1267.58 1181.97 1238.81 1151.97 1202.16 1119.85 1168.28 1091.3 1134.4 1062.74 1095.53 1017.95 1064.32 1010.62 1033.1 1003.29 1007.11 1014.95 981.011 1047.29 954.909 1079.63 922.809 1166.53 907.703 1204.64 892.597 1242.75 891.153 1261.53 890.375 1275.98 889.598 1290.43 896.595 1282.76 903.037 1291.32 909.48 1299.87 933.25 1318.21 929.029 1327.32 924.808 1336.43 896.04 1345.77 877.713 1345.99 859.386 1346.21 829.951 1343.65 819.066 1328.65 808.181 1313.65 810.069 1286.09 812.401 1255.98 814.734 1225.86 830.618 1188.42 833.061 1147.97 835.505 1107.52 833.283 1038.85 827.063 1013.29 820.843 987.729 831.728 1001.4 795.74 994.619 759.753 987.84 644.236 973.617 611.136 972.616 578.037 971.616 607.471 966.505 597.141 988.618 586.811 1010.73 562.375 1077.74 549.158 1105.3 535.94 1132.86 516.169 1126.97 517.835 1153.97 519.501 1180.97 543.937 1246.53 559.154 1267.31 574.371 1288.09 595.808 1273.76 609.137 1278.65 622.466 1283.54 636.683 1290.54 639.127 1296.65 641.57 1302.76 637.239 1310.98 623.799 1315.32 610.359 1319.65 575.926 1325.21 558.487 1322.65 541.049 1320.1 544.159 1328.99 519.168 1299.98 494.176 1270.98 423.978 1187.97 408.538 1148.63 393.099 1109.3 426.866 1095.41 426.532 1063.96 426.199 1032.51 421.09 971.394 406.539 959.949 391.988 948.503 381.992 967.838 339.229 995.286 296.465 1022.73 192.056 1088.52 149.959 1124.63 107.862 1160.75 96.5327 1188.64 86.6473 1211.97 76.7618 1235.31 88.8689 1247.87 90.646 1264.65 92.4232 1281.43 106.641 1300.98 97.3106 1312.65 87.9803 1324.32 50.8816 1340.32 34.665 1334.65 18.4483 1328.99 0.565327 1304.65 0.0101016 1278.65-0.545124 1252.64 21.4474 1209.2 31.3329 1178.64 41.2184 1148.08 49.2156 1121.08 59.3233 1095.3 69.431 1069.52 77.0948 1045.96 91.9787 1023.95 106.863 1001.95 132.854 998.063 148.627 963.282 164.399 928.501 165.954 867.495 186.613 815.267 207.273 763.04 260.255 687.477 272.584 649.917 284.913 612.358 280.248 647.362 260.588 589.911 240.929 532.461 175.728 387.446 154.624 305.216 133.52 222.985 124.302 146.422 133.965 96.5282 143.628 46.6345 181.726 17.1871 212.605 5.85246 243.483-5.48215 293.799-1.59278 319.235 28.5213 344.671 58.6354 361.554 148.867 365.22 186.537 368.885 224.208 354.223 244.877 341.228 254.544 328.232 264.212 296.465 251.432 287.246 244.543 278.027 237.654 288.024 235.32 285.913 213.207 283.803 191.093 284.58 134.199 274.584 111.863 264.587 89.5273 238.485 70.4147 225.933 79.1932 213.382 87.9717 196.388 121.753 199.276 164.535 202.164 207.317 217.159 267.879 243.261 335.886 269.363 403.893 334.242 533.847 356.837 575.524Z" stroke="#7F7F7F" stroke-width="4.58333" stroke-miterlimit="8" fill="#000000" fill-rule="evenodd" fill-opacity="0.25098" transform="matrix(-1 0 0 1 2562.5 663.5)"/></g></svg>