<svg width="1249" height="1296" xmlns="http://www.w3.org/2000/svg" xmlns:xlink="http://www.w3.org/1999/xlink" xml:space="preserve" overflow="hidden"><g transform="translate(-216 -104)"><path d="M0 0 1018.22 0.000360892" stroke="#D9D9D9" stroke-width="6.875" stroke-miterlimit="8" fill="none" fill-rule="evenodd" transform="matrix(1 0 0 -1 219.5 887.5)"/><path d="M0 0 0.000360892 1018.22" stroke="#D9D9D9" stroke-width="6.875" stroke-miterlimit="8" fill="none" fill-rule="evenodd" transform="matrix(1 0 0 -1 728.5 1396.72)"/><path d="M0 116C-6.48025e-14 51.935 227.887-1.47683e-14 509-2.95367e-14 790.113-5.90734e-14 1018 51.935 1018 116 1018 180.065 790.113 232 509 232 227.887 232-3.24012e-13 180.065 0 116Z" stroke="#D9D9D9" stroke-width="6.875" stroke-miterlimit="8" stroke-dasharray="55 20.625" fill="none" fill-rule="evenodd" transform="matrix(1 0 0 -1 219.5 1000.5)"/><path d="M0 116C-6.48025e-14 51.935 227.887-1.47683e-14 509-2.95367e-14 790.113-5.90734e-14 1018 51.935 1018 116 1018 180.065 790.113 232 509 232 227.887 232-3.24013e-13 180.065 0 116Z" stroke="#D9D9D9" stroke-width="6.875" stroke-miterlimit="8" stroke-dasharray="55 20.625" fill="none" fill-rule="evenodd" transform="matrix(-1.83697e-16 -1 -1 1.83697e-16 844.5 1396.5)"/><path d="M0 509C-6.48025e-14 227.887 227.887-6.48025e-14 509-1.29605e-13 790.113-2.5921e-13 1018 227.887 1018 509 1018 790.113 790.113 1018 509 1018 227.887 1018-3.24012e-13 790.113 0 509Z" stroke="#000000" stroke-width="6.875" stroke-miterlimit="8" fill="none" fill-rule="evenodd" transform="matrix(1 0 0 -1 219.5 1396.5)"/><path d="M725.5 887.208 1342.61 887.209 1342.61 891.792 725.5 891.792ZM1338.03 875.75 1365.53 889.5 1338.03 903.25Z"/><path d="M2.29167-1.24852e-06 2.29202 639.503-2.29132 639.503-2.29167 1.24852e-06ZM13.7503 634.92 0.000360892 662.42-13.7497 634.92Z" transform="matrix(1 0 0 -1 728.5 888.92)"/><path d="M1.59968-1.64096 215.989 207.354 212.789 210.636-1.59968 1.64096ZM220.705 195.95 230.799 224.992 201.509 215.641Z" transform="matrix(-1 0 0 1 728.299 886.5)"/><text font-family="Poppins,Poppins_MSFontService,sans-serif" font-weight="700" font-size="64" transform="matrix(1 0 0 1 433.112 1181)">x</text><text font-family="Poppins,Poppins_MSFontService,sans-serif" font-weight="700" font-size="64" transform="matrix(1 0 0 1 709.334 183)">z</text><text font-family="Poppins,Poppins_MSFontService,sans-serif" font-weight="700" font-size="64" transform="matrix(1 0 0 1 1385.65 907)">y</text><path d="M0 0 249.853 245.208" stroke="#D9D9D9" stroke-width="4.58333" stroke-miterlimit="8" stroke-dasharray="36.6667 13.75" fill="none" fill-rule="evenodd" transform="matrix(-1 0 0 1 975.354 647.5)"/><path d="M0 158.773 15.4605 149.135 15.4605 157.068C50.1618 149.33 74.9999 116.923 74.9999 79.3863 74.9999 116.923 50.1618 149.33 15.4605 157.068L15.4605 165 0 158.773Z" fill="#4338CA" fill-rule="evenodd" transform="matrix(-1 1.22465e-16 1.22465e-16 1 734 805)"/><path d="M74.9999 79.3863C74.9999 35.5426 41.4213 0 0 0L0 0C41.4213 0 74.9999 35.5426 74.9999 79.3863Z" fill="#362DA2" fill-rule="evenodd" transform="matrix(-1 1.22465e-16 1.22465e-16 1 734 805)"/><path d="M74.9999 79.3863 74.9999 79.3863 74.9999 79.3863C74.9999 116.923 50.1618 149.33 15.4605 157.068L15.4605 165 0 158.773 15.4605 149.135 15.4605 157.068C50.1618 149.33 74.9999 116.923 74.9999 79.3863" stroke="#4338CA" stroke-width="10.3125" stroke-miterlimit="8" fill="none" fill-rule="evenodd" transform="matrix(-1 1.22465e-16 1.22465e-16 1 734 805)"/><path d="M0 157.81 15.4605 148.231 15.4605 156.116C50.1618 148.425 74.9999 116.215 74.9999 78.9052 74.9999 116.215 50.1618 148.425 15.4605 156.116L15.4605 164 0 157.81Z" fill="#4338CA" fill-rule="evenodd" transform="matrix(-1 1.22465e-16 1.22465e-16 1 733 526)"/><path d="M74.9999 78.9052C74.9999 35.3272 41.4213 0 0 0L0 0C41.4213 0 74.9999 35.3272 74.9999 78.9052Z" fill="#362DA2" fill-rule="evenodd" transform="matrix(-1 1.22465e-16 1.22465e-16 1 733 526)"/><path d="M74.9999 78.9052 74.9999 78.9052 74.9999 78.9052C74.9999 116.215 50.1618 148.425 15.4605 156.116L15.4605 164 0 157.81 15.4605 148.231 15.4605 156.116C50.1618 148.425 74.9999 116.215 74.9999 78.9052" stroke="#4338CA" stroke-width="10.3125" stroke-miterlimit="8" fill="none" fill-rule="evenodd" transform="matrix(-1 1.22465e-16 1.22465e-16 1 733 526)"/><path d="M0 157.81 15.4605 148.231 15.4605 156.116C50.1618 148.425 74.9999 116.215 74.9999 78.9052 74.9999 116.215 50.1618 148.425 15.4605 156.116L15.4605 164 0 157.81Z" fill="#4338CA" fill-rule="evenodd" transform="matrix(-1 1.22465e-16 1.22465e-16 1 734 1066)"/><path d="M74.9999 78.9052C74.9999 35.3272 41.4213 0 0 0L0 0C41.4213 0 74.9999 35.3272 74.9999 78.9052Z" fill="#362DA2" fill-rule="evenodd" transform="matrix(-1 1.22465e-16 1.22465e-16 1 734 1066)"/><path d="M74.9999 78.9052 74.9999 78.9052 74.9999 78.9052C74.9999 116.215 50.1618 148.425 15.4605 156.116L15.4605 164 0 157.81 15.4605 148.231 15.4605 156.116C50.1618 148.425 74.9999 116.215 74.9999 78.9052" stroke="#4338CA" stroke-width="10.3125" stroke-miterlimit="8" fill="none" fill-rule="evenodd" transform="matrix(-1 1.22465e-16 1.22465e-16 1 734 1066)"/></g></svg>