<svg width="1678" height="503" xmlns="http://www.w3.org/2000/svg" xmlns:xlink="http://www.w3.org/1999/xlink" xml:space="preserve" overflow="hidden"><g transform="translate(-643 -342)"><path d="M1762.5 399.504C1762.5 369.126 1787.13 344.5 1817.5 344.5L2037.51 344.5C2067.89 344.5 2092.52 369.126 2092.52 399.504L2092.52 783.496C2092.52 813.874 2067.89 838.5 2037.51 838.5L1817.5 838.5C1787.13 838.5 1762.5 813.874 1762.5 783.496Z" stroke="#F2F2F2" stroke-width="4.58333" stroke-miterlimit="8" fill="#F2F2F2" fill-rule="evenodd"/><path d="M1114.5 403.504C1114.5 373.126 1139.13 348.5 1169.5 348.5L1389.51 348.5C1419.89 348.5 1444.52 373.126 1444.52 403.504L1444.52 787.496C1444.52 817.874 1419.89 842.5 1389.51 842.5L1169.5 842.5C1139.13 842.5 1114.5 817.874 1114.5 787.496Z" stroke="#F2F2F2" stroke-width="4.58333" stroke-miterlimit="8" fill="#F2F2F2" fill-rule="evenodd"/><path d="M0 0 1391.41 0.000360892" stroke="#000000" stroke-width="6.875" stroke-miterlimit="8" fill="none" fill-rule="evenodd" transform="matrix(-1 0 0 1 2320.91 513.5)"/><path d="M1333.5 513.5C1333.5 543.876 1308.88 568.5 1278.5 568.5 1248.12 568.5 1223.5 543.876 1223.5 513.5 1223.5 483.124 1248.12 458.5 1278.5 458.5 1308.88 458.5 1333.5 483.124 1333.5 513.5Z" stroke="#000000" stroke-width="6.875" stroke-miterlimit="8" fill="none" fill-rule="evenodd"/><path d="M1278.5 458.5 1278.5 568.735" stroke="#000000" stroke-width="6.875" stroke-miterlimit="8" fill="none" fill-rule="evenodd"/><path d="M1982.5 513.5C1982.5 543.876 1957.88 568.5 1927.5 568.5 1897.12 568.5 1872.5 543.876 1872.5 513.5 1872.5 483.124 1897.12 458.5 1927.5 458.5 1957.88 458.5 1982.5 483.124 1982.5 513.5Z" stroke="#000000" stroke-width="6.875" stroke-miterlimit="8" fill="none" fill-rule="evenodd"/><path d="M1927.5 458.5 1927.5 568.735" stroke="#000000" stroke-width="6.875" stroke-miterlimit="8" fill="none" fill-rule="evenodd"/><text font-family="Poppins,Poppins_MSFontService,sans-serif" font-weight="400" font-size="83" transform="matrix(1 0 0 1 693.49 550)">q</text><text font-family="Poppins,Poppins_MSFontService,sans-serif" font-weight="400" font-size="83" transform="matrix(1 0 0 1 749.062 550)">[0]</text><text font-family="Poppins,Poppins_MSFontService,sans-serif" font-weight="400" font-size="83" transform="matrix(1 0 0 1 1222.06 763)">m1</text><text font-family="Poppins,Poppins_MSFontService,sans-serif" font-weight="400" font-size="83" transform="matrix(1 0 0 1 1861.02 763)">m2</text></g></svg>