<svg width="2138" height="593" xmlns="http://www.w3.org/2000/svg" xmlns:xlink="http://www.w3.org/1999/xlink" xml:space="preserve" overflow="hidden"><g transform="translate(-156 -131)"><path d="M447.5 335.5 1057.28 335.5" stroke="#000000" stroke-width="6.875" stroke-miterlimit="8" fill="none" fill-rule="evenodd"/><rect x="616.5" y="199.5" width="271" height="271" stroke="#000000" stroke-width="6.875" stroke-miterlimit="8" fill="#FFFFFF"/><text font-family="Poppins,Poppins_MSFontService,sans-serif" font-weight="400" font-size="64" transform="matrix(1 0 0 1 676.527 355)">g</text><text font-family="Poppins,Poppins_MSFontService,sans-serif" font-weight="400" font-size="64" transform="matrix(1 0 0 1 720.069 355)">ate</text><text font-family="Poppins,Poppins_MSFontService,sans-serif" font-weight="400" font-size="64" transform="matrix(1 0 0 1 1094.68 355)">output</text><text font-family="Poppins,Poppins_MSFontService,sans-serif" font-weight="400" font-size="64" transform="matrix(1 0 0 1 218.555 355)">input</text><text font-family="Poppins,Poppins_MSFontService,sans-serif" font-weight="700" font-size="64" transform="matrix(1 0 0 1 504.079 667)">Single</text><text font-family="Poppins,Poppins_MSFontService,sans-serif" font-weight="700" font-size="64" transform="matrix(1 0 0 1 707.464 667)">-</text><text font-family="Poppins,Poppins_MSFontService,sans-serif" font-weight="700" font-size="64" transform="matrix(1 0 0 1 744.704 667)">bit gate</text><path d="M1558.48 133.789 1909.1 133.789 1909.1 267.623 1558.48 267.623Z" fill="#F2F2F2" fill-rule="evenodd"/><path d="M1909.1 133.789 2259.73 133.789 2259.73 267.623 1909.1 267.623Z" fill="#F2F2F2" fill-rule="evenodd"/><path d="M1909.1 131.498 1909.1 537.581" stroke="#000000" stroke-width="4.58333" stroke-linejoin="round" stroke-miterlimit="10" fill="none" fill-rule="evenodd"/><path d="M1556.18 267.623 2262.02 267.623" stroke="#000000" stroke-width="4.58333" stroke-linejoin="round" stroke-miterlimit="10" fill="none" fill-rule="evenodd"/><path d="M1556.18 401.456 2262.02 401.456" stroke="#000000" stroke-width="4.58333" stroke-linejoin="round" stroke-miterlimit="10" fill="none" fill-rule="evenodd"/><path d="M1558.48 131.498 1558.48 537.581" stroke="#000000" stroke-width="4.58333" stroke-linejoin="round" stroke-miterlimit="10" fill="none" fill-rule="evenodd"/><path d="M2259.73 131.498 2259.73 537.581" stroke="#000000" stroke-width="4.58333" stroke-linejoin="round" stroke-miterlimit="10" fill="none" fill-rule="evenodd"/><path d="M1556.18 133.789 2262.02 133.789" stroke="#000000" stroke-width="4.58333" stroke-linejoin="round" stroke-miterlimit="10" fill="none" fill-rule="evenodd"/><path d="M1556.18 535.289 2262.02 535.289" stroke="#000000" stroke-width="4.58333" stroke-linejoin="round" stroke-miterlimit="10" fill="none" fill-rule="evenodd"/><text font-family="Poppins,Poppins_MSFontService,sans-serif" font-weight="400" font-size="64" transform="matrix(1 0 0 1 1972.69 221)">Output</text><text font-family="Poppins,Poppins_MSFontService,sans-serif" font-weight="400" font-size="64" transform="matrix(1 0 0 1 1651 221)">Input</text><text font-family="Poppins,Poppins_MSFontService,sans-serif" font-weight="400" font-size="64" transform="matrix(1 0 0 1 2067.51 355)">?</text><text font-family="Poppins,Poppins_MSFontService,sans-serif" font-weight="400" font-size="64" transform="matrix(1 0 0 1 1713.74 355)">0</text><text font-family="Poppins,Poppins_MSFontService,sans-serif" font-weight="400" font-size="64" transform="matrix(1 0 0 1 2067.51 489)">?</text><text font-family="Poppins,Poppins_MSFontService,sans-serif" font-weight="400" font-size="64" transform="matrix(1 0 0 1 1723.48 489)">1</text><text font-family="Poppins,Poppins_MSFontService,sans-serif" font-weight="700" font-size="64" transform="matrix(1 0 0 1 1562.77 667)">Single</text><text font-family="Poppins,Poppins_MSFontService,sans-serif" font-weight="700" font-size="64" transform="matrix(1 0 0 1 1766.16 667)">-</text><text font-family="Poppins,Poppins_MSFontService,sans-serif" font-weight="700" font-size="64" transform="matrix(1 0 0 1 1803.4 667)">bit truth table</text></g></svg>