<!-- Made in Powerpoint -->
<svg width="456" height="457" xmlns="http://www.w3.org/2000/svg" xmlns:xlink="http://www.w3.org/1999/xlink" xml:space="preserve" overflow="hidden"><g transform="translate(-1605 -908)"><path d="M1615.5 1176C1615.5 1077.42 1695.42 997.5 1794 997.5 1892.58 997.5 1972.5 1077.42 1972.5 1176 1972.5 1274.58 1892.58 1354.5 1794 1354.5 1695.42 1354.5 1615.5 1274.58 1615.5 1176Z" stroke="#FFFFFF" stroke-width="20.625" stroke-miterlimit="8" fill="none" fill-rule="evenodd"/><path d="M1742 1175.5C1742 1075.81 1765.06 995 1793.5 995 1821.94 995 1845 1075.81 1845 1175.5 1845 1275.19 1821.94 1356 1793.5 1356 1765.06 1356 1742 1275.19 1742 1175.5Z" stroke="#FFFFFF" stroke-width="10.3125" stroke-linecap="square" stroke-miterlimit="8" stroke-dasharray="30.9375 10.3125" fill="none" fill-rule="evenodd"/><path d="M1793.5 1227C1693.81 1227 1613 1204.17 1613 1176 1613 1147.83 1693.81 1125 1793.5 1125 1893.19 1125 1974 1147.83 1974 1176 1974 1204.17 1893.19 1227 1793.5 1227Z" stroke="#FFFFFF" stroke-width="10.3125" stroke-linecap="square" stroke-miterlimit="8" stroke-dasharray="30.9375 10.3125" fill="none" fill-rule="evenodd"/><path d="M1787.84 1356.11 1787.84 964.781 1798.16 964.781 1798.16 1356.11ZM1777.53 969.938 1793 939 1808.47 969.938Z" fill="#FFFFFF"/><path d="M1613 1170.84 2004.33 1170.84 2004.33 1181.16 1613 1181.16ZM1999.17 1160.53 2030.11 1176 1999.17 1191.47Z" fill="#FFFFFF"/></g></svg>