<svg width="2135" height="1370" xmlns="http://www.w3.org/2000/svg" xmlns:xlink="http://www.w3.org/1999/xlink" xml:space="preserve" overflow="hidden"><g transform="translate(-915 -450)"><path d="M1427.5 605.5 1427.5 1623.72" stroke="#D9D9D9" stroke-width="6.875" stroke-miterlimit="8" fill="none" fill-rule="evenodd"/><path d="M918.5 1117.5C918.5 1053.43 1146.39 1001.5 1427.5 1001.5 1708.61 1001.5 1936.5 1053.43 1936.5 1117.5 1936.5 1181.56 1708.61 1233.5 1427.5 1233.5 1146.39 1233.5 918.5 1181.56 918.5 1117.5Z" stroke="#D9D9D9" stroke-width="6.875" stroke-miterlimit="8" stroke-dasharray="55 20.625" fill="none" fill-rule="evenodd"/><path d="M918.5 1114.5 1936.72 1114.5" stroke="#D9D9D9" stroke-width="6.875" stroke-miterlimit="8" fill="none" fill-rule="evenodd"/><path d="M1427.5 605.5C1491.57 605.5 1543.5 833.387 1543.5 1114.5 1543.5 1395.61 1491.57 1623.5 1427.5 1623.5 1363.44 1623.5 1311.5 1395.61 1311.5 1114.5 1311.5 833.387 1363.44 605.5 1427.5 605.5Z" stroke="#D9D9D9" stroke-width="6.875" stroke-miterlimit="8" stroke-dasharray="55 20.625" fill="none" fill-rule="evenodd"/><path d="M918.5 1114.5C918.5 833.387 1146.39 605.5 1427.5 605.5 1708.61 605.5 1936.5 833.387 1936.5 1114.5 1936.5 1395.61 1708.61 1623.5 1427.5 1623.5 1146.39 1623.5 918.5 1395.61 918.5 1114.5Z" stroke="#000000" stroke-width="6.875" stroke-miterlimit="8" fill="none" fill-rule="evenodd"/><path d="M1411.5 605.5C1411.5 596.664 1418.66 589.5 1427.5 589.5 1436.34 589.5 1443.5 596.664 1443.5 605.5 1443.5 614.337 1436.34 621.5 1427.5 621.5 1418.66 621.5 1411.5 614.337 1411.5 605.5Z" stroke="#172C51" stroke-width="4.58333" stroke-miterlimit="8" fill="#66CCFF" fill-rule="evenodd"/><path d="M0 0 0.000360892 493.271" stroke="#000000" stroke-width="6.875" stroke-miterlimit="8" fill="none" fill-rule="evenodd" transform="matrix(-1 0 0 1 1427.5 621.5)"/><text font-family="Poppins,Poppins_MSFontService,sans-serif" font-weight="400" font-size="83" transform="matrix(1 0 0 1 1374.56 555)">|0</text><text font-family="Cambria Math,Cambria Math_MSFontService,sans-serif" font-weight="400" font-size="83" transform="matrix(1 0 0 1 1450.18 555)">⟩</text><path d="M0 0 0.000360892 1018.22" stroke="#D9D9D9" stroke-width="6.875" stroke-miterlimit="8" fill="none" fill-rule="evenodd" transform="matrix(1 0 0 -1 2536.5 1623.72)"/><path d="M0 116C-6.48025e-14 51.935 227.887-1.47683e-14 509-2.95367e-14 790.113-5.90734e-14 1018 51.935 1018 116 1018 180.065 790.113 232 509 232 227.887 232-3.24013e-13 180.065 0 116Z" stroke="#D9D9D9" stroke-width="6.875" stroke-miterlimit="8" stroke-dasharray="55 20.625" fill="none" fill-rule="evenodd" transform="matrix(1 0 0 -1 2027.5 1227.5)"/><path d="M0 0 1018.22 0.000360892" stroke="#D9D9D9" stroke-width="6.875" stroke-miterlimit="8" fill="none" fill-rule="evenodd" transform="matrix(1 0 0 -1 2027.5 1114.5)"/><path d="M0 116C-6.48025e-14 51.935 227.887-1.47683e-14 509-2.95367e-14 790.113-5.90734e-14 1018 51.935 1018 116 1018 180.065 790.113 232 509 232 227.887 232-3.24013e-13 180.065 0 116Z" stroke="#D9D9D9" stroke-width="6.875" stroke-miterlimit="8" stroke-dasharray="55 20.625" fill="none" fill-rule="evenodd" transform="matrix(-1.83697e-16 -1 -1 1.83697e-16 2652.5 1623.5)"/><path d="M0 509C-6.48025e-14 227.887 227.887-6.48025e-14 509-1.29605e-13 790.113-2.5921e-13 1018 227.887 1018 509 1018 790.113 790.113 1018 509 1018 227.887 1018-3.24013e-13 790.113 0 509Z" stroke="#000000" stroke-width="6.875" stroke-miterlimit="8" fill="none" fill-rule="evenodd" transform="matrix(1 0 0 -1 2027.5 1623.5)"/><path d="M0 16C-2.03701e-15 7.16344 7.16344-2.03701e-15 16-4.07402e-15 24.8365-8.14805e-15 32 7.16344 32 16 32 24.8365 24.8365 32 16 32 7.16344 32-1.01851e-14 24.8365 0 16Z" stroke="#172C51" stroke-width="4.58333" stroke-miterlimit="8" fill="#66CCFF" fill-rule="evenodd" transform="matrix(1 0 0 -1 2520.5 1639.5)"/><path d="M2536.5 1607.77 2536.5 1114.5" stroke="#000000" stroke-width="6.875" stroke-miterlimit="8" fill="none" fill-rule="evenodd"/><text font-family="Poppins,Poppins_MSFontService,sans-serif" font-weight="400" font-size="83" transform="matrix(1 0 0 1 2495.61 1747)">|1</text><text font-family="Cambria Math,Cambria Math_MSFontService,sans-serif" font-weight="400" font-size="83" transform="matrix(1 0 0 1 2546.03 1747)">⟩</text></g></svg>