<svg width="2540" height="1593" xmlns="http://www.w3.org/2000/svg" xmlns:xlink="http://www.w3.org/1999/xlink" xml:space="preserve" overflow="hidden"><g transform="translate(-1549 -425)"><path d="M2158.5 604.5 2158.5 1816.89" stroke="#D9D9D9" stroke-width="6.875" stroke-miterlimit="8" fill="none" fill-rule="evenodd"/><path d="M1552.5 1214C1552.5 1137.51 1823.82 1075.5 2158.5 1075.5 2493.18 1075.5 2764.5 1137.51 2764.5 1214 2764.5 1290.49 2493.18 1352.5 2158.5 1352.5 1823.82 1352.5 1552.5 1290.49 1552.5 1214Z" stroke="#D9D9D9" stroke-width="6.875" stroke-miterlimit="8" stroke-dasharray="55 20.625" fill="none" fill-rule="evenodd"/><path d="M1552.5 1210.5 2764.89 1210.5" stroke="#D9D9D9" stroke-width="6.875" stroke-miterlimit="8" fill="none" fill-rule="evenodd"/><path d="M2158.5 604.5C2234.72 604.5 2296.5 875.816 2296.5 1210.5 2296.5 1545.18 2234.72 1816.5 2158.5 1816.5 2082.28 1816.5 2020.5 1545.18 2020.5 1210.5 2020.5 875.816 2082.28 604.5 2158.5 604.5Z" stroke="#D9D9D9" stroke-width="6.875" stroke-miterlimit="8" stroke-dasharray="55 20.625" fill="none" fill-rule="evenodd"/><path d="M1552.5 1210.5C1552.5 875.816 1823.82 604.5 2158.5 604.5 2493.18 604.5 2764.5 875.816 2764.5 1210.5 2764.5 1545.18 2493.18 1816.5 2158.5 1816.5 1823.82 1816.5 1552.5 1545.18 1552.5 1210.5Z" stroke="#000000" stroke-width="6.875" stroke-miterlimit="8" fill="none" fill-rule="evenodd"/><path d="M2139.5 604.5C2139.5 594.007 2148.01 585.5 2158.5 585.5 2168.99 585.5 2177.5 594.007 2177.5 604.5 2177.5 614.993 2168.99 623.5 2158.5 623.5 2148.01 623.5 2139.5 614.993 2139.5 604.5Z" stroke="#172C51" stroke-width="4.58333" stroke-miterlimit="8" fill="#66CCFF" fill-rule="evenodd"/><path d="M0 0 0.000360892 587.339" stroke="#000000" stroke-width="6.875" stroke-miterlimit="8" fill="none" fill-rule="evenodd" transform="matrix(-1 0 0 1 2158.5 623.5)"/><text font-family="Poppins,Poppins_MSFontService,sans-serif" font-weight="400" font-size="83" transform="matrix(1 0 0 1 1995.88 526)">s</text><text font-family="Poppins,Poppins_MSFontService,sans-serif" font-weight="400" font-size="83" transform="matrix(1 0 0 1 2038.85 526)">pin</text><text font-family="Poppins,Poppins_MSFontService,sans-serif" font-weight="400" font-size="83" transform="matrix(1 0 0 1 2167.18 526)">-</text><text font-family="Poppins,Poppins_MSFontService,sans-serif" font-weight="400" font-size="83" transform="matrix(1 0 0 1 2212.44 526)">up</text><path d="M0 0 0.000360892 1212.39" stroke="#D9D9D9" stroke-width="6.875" stroke-miterlimit="8" fill="none" fill-rule="evenodd" transform="matrix(1 0 0 -1 3478.5 1816.89)"/><path d="M0 138.5C-7.71519e-14 62.0086 271.315-1.76329e-14 606-3.52658e-14 940.685-7.05316e-14 1212 62.0086 1212 138.5 1212 214.992 940.685 277 606 277 271.315 277-3.85759e-13 214.992 0 138.5Z" stroke="#D9D9D9" stroke-width="6.875" stroke-miterlimit="8" stroke-dasharray="55 20.625" fill="none" fill-rule="evenodd" transform="matrix(1 0 0 -1 2872.5 1345.5)"/><path d="M0 0 1212.39 0.000360892" stroke="#D9D9D9" stroke-width="6.875" stroke-miterlimit="8" fill="none" fill-rule="evenodd" transform="matrix(1 0 0 -1 2872.5 1210.5)"/><path d="M0 138C-7.71519e-14 61.7847 271.315-1.75692e-14 606-3.51385e-14 940.684-7.0277e-14 1212 61.7847 1212 138 1212 214.215 940.684 276 606 276 271.315 276-3.85759e-13 214.215 0 138Z" stroke="#D9D9D9" stroke-width="6.875" stroke-miterlimit="8" stroke-dasharray="55 20.625" fill="none" fill-rule="evenodd" transform="matrix(-1.83697e-16 -1 -1 1.83697e-16 3616.5 1816.5)"/><path d="M0 606C-7.71519e-14 271.315 271.315-7.71519e-14 606-1.54304e-13 940.685-3.08607e-13 1212 271.315 1212 606 1212 940.684 940.685 1212 606 1212 271.315 1212-3.85759e-13 940.684 0 606Z" stroke="#000000" stroke-width="6.875" stroke-miterlimit="8" fill="none" fill-rule="evenodd" transform="matrix(1 0 0 -1 2872.5 1816.5)"/><path d="M0 19.0001C-2.41896e-15 8.50663 8.50663-2.41896e-15 19.0001-4.83793e-15 29.4935-9.67586e-15 38.0002 8.50663 38.0002 19.0001 38.0002 29.4935 29.4935 38.0002 19.0001 38.0002 8.50663 38.0002-1.20948e-14 29.4935 0 19.0001Z" stroke="#172C51" stroke-width="4.58333" stroke-miterlimit="8" fill="#66CCFF" fill-rule="evenodd" transform="matrix(1 0 0 -1 3459.5 1835.5)"/><path d="M3478.5 1797.84 3478.5 1210.5" stroke="#000000" stroke-width="6.875" stroke-miterlimit="8" fill="none" fill-rule="evenodd"/><text font-family="Poppins,Poppins_MSFontService,sans-serif" font-weight="400" font-size="83" transform="matrix(1 0 0 1 3255.55 1945)">s</text><text font-family="Poppins,Poppins_MSFontService,sans-serif" font-weight="400" font-size="83" transform="matrix(1 0 0 1 3298.52 1945)">pin</text><text font-family="Poppins,Poppins_MSFontService,sans-serif" font-weight="400" font-size="83" transform="matrix(1 0 0 1 3426.86 1945)">-</text><text font-family="Poppins,Poppins_MSFontService,sans-serif" font-weight="400" font-size="83" transform="matrix(1 0 0 1 3472.12 1945)">down</text></g></svg>