<svg width="1220" height="1815" xmlns="http://www.w3.org/2000/svg" xmlns:xlink="http://www.w3.org/1999/xlink" xml:space="preserve" overflow="hidden"><g transform="translate(-308 -330)"><path d="M311.5 1216.5C311.5 1140.28 583.039 1078.5 918 1078.5 1252.96 1078.5 1524.5 1140.28 1524.5 1216.5 1524.5 1292.72 1252.96 1354.5 918 1354.5 583.039 1354.5 311.5 1292.72 311.5 1216.5Z" stroke="#BFBFBF" stroke-width="6.875" stroke-miterlimit="8" stroke-dasharray="55 20.625" fill="none" fill-rule="evenodd"/><path d="M311.5 1212.5 1523.89 1212.5" stroke="#BFBFBF" stroke-width="6.875" stroke-miterlimit="8" fill="none" fill-rule="evenodd"/><path d="M918 606.5C994.492 606.5 1056.5 877.815 1056.5 1212.5 1056.5 1547.18 994.492 1818.5 918 1818.5 841.509 1818.5 779.5 1547.18 779.5 1212.5 779.5 877.815 841.509 606.5 918 606.5Z" stroke="#BFBFBF" stroke-width="6.875" stroke-miterlimit="8" stroke-dasharray="55 20.625" fill="none" fill-rule="evenodd"/><path d="M311.5 1212.5C311.5 877.815 583.039 606.5 918 606.5 1252.96 606.5 1524.5 877.815 1524.5 1212.5 1524.5 1547.18 1252.96 1818.5 918 1818.5 583.039 1818.5 311.5 1547.18 311.5 1212.5Z" stroke="#000000" stroke-width="6.875" stroke-miterlimit="8" fill="none" fill-rule="evenodd"/><path d="M921.938 474.418 921.938 1957.44 915.063 1957.44 915.062 474.418ZM904.75 479 918.5 451.5 932.25 479ZM932.25 1952.86 918.5 1980.36 904.75 1952.86Z"/><text font-family="Poppins,Poppins_MSFontService,sans-serif" font-weight="400" font-size="83" transform="matrix(1 0 0 1 755.011 431)">s</text><text font-family="Poppins,Poppins_MSFontService,sans-serif" font-weight="400" font-size="83" transform="matrix(1 0 0 1 797.98 431)">pin</text><text font-family="Poppins,Poppins_MSFontService,sans-serif" font-weight="400" font-size="83" transform="matrix(1 0 0 1 926.313 431)">-</text><text font-family="Poppins,Poppins_MSFontService,sans-serif" font-weight="400" font-size="83" transform="matrix(1 0 0 1 971.574 431)">up</text><text font-family="Poppins,Poppins_MSFontService,sans-serif" font-weight="400" font-size="83" transform="matrix(1 0 0 1 694.855 2072)">s</text><text font-family="Poppins,Poppins_MSFontService,sans-serif" font-weight="400" font-size="83" transform="matrix(1 0 0 1 737.824 2072)">pin</text><text font-family="Poppins,Poppins_MSFontService,sans-serif" font-weight="400" font-size="83" transform="matrix(1 0 0 1 866.157 2072)">-</text><text font-family="Poppins,Poppins_MSFontService,sans-serif" font-weight="400" font-size="83" transform="matrix(1 0 0 1 911.418 2072)">down</text></g></svg>