<svg width="1250" height="1296" xmlns="http://www.w3.org/2000/svg" xmlns:xlink="http://www.w3.org/1999/xlink" xml:space="preserve" overflow="hidden"><g transform="translate(-1627 -103)"><path d="M0 0 1018.22 0.000360892" stroke="#D9D9D9" stroke-width="6.875" stroke-miterlimit="8" fill="none" fill-rule="evenodd" transform="matrix(1 0 0 -1 1630.5 886.5)"/><path d="M0 0 0.000360892 1018.22" stroke="#D9D9D9" stroke-width="6.875" stroke-miterlimit="8" fill="none" fill-rule="evenodd" transform="matrix(1 0 0 -1 2139.5 1395.72)"/><path d="M0 116C-6.48662e-14 51.935 228.111-1.47683e-14 509.5-2.95367e-14 790.889-5.90734e-14 1019 51.935 1019 116 1019 180.065 790.889 232 509.5 232 228.111 232-3.24331e-13 180.065 0 116Z" stroke="#D9D9D9" stroke-width="6.875" stroke-miterlimit="8" stroke-dasharray="55 20.625" fill="none" fill-rule="evenodd" transform="matrix(1 0 0 -1 1630.5 999.5)"/><path d="M0 116C-6.48025e-14 51.9349 227.887-1.47683e-14 509-2.95367e-14 790.113-5.90733e-14 1018 51.9349 1018 116 1018 180.065 790.113 232 509 232 227.887 232-3.24013e-13 180.065 0 116Z" stroke="#D9D9D9" stroke-width="6.875" stroke-miterlimit="8" stroke-dasharray="55 20.625" fill="none" fill-rule="evenodd" transform="matrix(-1.83697e-16 -1 -1 1.83697e-16 2255.5 1395.5)"/><path d="M0 509C-6.48662e-14 227.887 228.111-6.48025e-14 509.5-1.29605e-13 790.889-2.5921e-13 1019 227.887 1019 509 1019 790.113 790.889 1018 509.5 1018 228.111 1018-3.24331e-13 790.113 0 509Z" stroke="#000000" stroke-width="6.875" stroke-miterlimit="8" fill="none" fill-rule="evenodd" transform="matrix(1 0 0 -1 1630.5 1395.5)"/><path d="M2136.5 886.208 2753.61 886.209 2753.61 890.792 2136.5 890.792ZM2749.03 874.75 2776.53 888.5 2749.03 902.25Z"/><path d="M2.29167-1.24852e-06 2.29202 639.503-2.29132 639.503-2.29167 1.24852e-06ZM13.7503 634.92 0.000360892 662.42-13.7497 634.92Z" transform="matrix(1 0 0 -1 2139.5 888.92)"/><path d="M1.59968-1.64096 215.989 207.354 212.789 210.636-1.59968 1.64096ZM220.705 195.95 230.799 224.992 201.509 215.641Z" transform="matrix(-1 0 0 1 2139.3 885.5)"/><text font-family="Poppins,Poppins_MSFontService,sans-serif" font-weight="700" font-size="64" transform="matrix(1 0 0 1 1844.45 1180)">x</text><text font-family="Poppins,Poppins_MSFontService,sans-serif" font-weight="700" font-size="64" transform="matrix(1 0 0 1 2120.68 182)">z</text><text font-family="Poppins,Poppins_MSFontService,sans-serif" font-weight="700" font-size="64" transform="matrix(1 0 0 1 2797 906)">y</text><path d="M0 0 249.853 245.208" stroke="#D9D9D9" stroke-width="4.58333" stroke-miterlimit="8" stroke-dasharray="36.6667 13.75" fill="none" fill-rule="evenodd" transform="matrix(-1 0 0 1 2386.35 646.5)"/><path d="M0 158.773 15.4606 149.135 15.4606 157.068C50.162 149.33 75.0003 116.923 75.0003 79.3863 75.0003 116.923 50.162 149.33 15.4606 157.068L15.4606 165 0 158.773Z" fill-rule="evenodd" transform="matrix(-1 1.22465e-16 1.22465e-16 1 2095 443)"/><path d="M75.0003 79.3863C75.0003 35.5426 41.4215 0 0 0L0 0C41.4215 0 75.0003 35.5426 75.0003 79.3863Z" fill-rule="evenodd" transform="matrix(-1 1.22465e-16 1.22465e-16 1 2095 443)"/><path d="M15.4606 157.068 15.4606 165 0 158.773 15.4606 149.135 15.4606 157.068C50.162 149.33 47.2695 148.59 56.1318 134.372" stroke="#4338CA" stroke-width="10.3125" stroke-miterlimit="8" fill="none" fill-rule="evenodd" transform="matrix(-1 1.22465e-16 1.22465e-16 1 2095 443)"/><path d="M0 157.811 15.4606 148.232 15.4606 156.116C50.162 148.425 75.0003 116.215 75.0003 78.9054 75.0003 116.215 50.162 148.425 15.4606 156.116L15.4606 164 0 157.811Z" fill-rule="evenodd" transform="matrix(-1 1.22465e-16 1.22465e-16 1 2095 754)"/><path d="M75.0003 78.9054C75.0003 35.3272 41.4215 0 0 0L0 0C41.4215 0 75.0003 35.3272 75.0003 78.9054Z" fill-rule="evenodd" transform="matrix(-1 1.22465e-16 1.22465e-16 1 2095 754)"/><path d="M15.4606 156.116 15.4606 164 0 157.811 15.4606 148.232 15.4606 156.116C50.162 148.425 47.2695 147.69 56.1318 133.558" stroke="#4338CA" stroke-width="10.3125" stroke-miterlimit="8" fill="none" fill-rule="evenodd" transform="matrix(-1 1.22465e-16 1.22465e-16 1 2095 754)"/><path d="M0 157.81 15.4606 148.231 15.4606 156.116C50.162 148.425 75.0003 116.215 75.0003 78.9052 75.0003 116.215 50.162 148.425 15.4606 156.116L15.4606 164 0 157.81Z" fill-rule="evenodd" transform="matrix(-1 1.22465e-16 1.22465e-16 1 2095 1015)"/><path d="M75.0003 78.9052C75.0003 35.3272 41.4215 0 0 0L0 0C41.4215 0 75.0003 35.3272 75.0003 78.9052Z" fill-rule="evenodd" transform="matrix(-1 1.22465e-16 1.22465e-16 1 2095 1015)"/><path d="M15.4606 156.116 15.4606 164 0 157.81 15.4606 148.231 15.4606 156.116C50.162 148.425 47.2695 147.69 56.1318 133.557" stroke="#4338CA" stroke-width="10.3125" stroke-miterlimit="8" fill="none" fill-rule="evenodd" transform="matrix(-1 1.22465e-16 1.22465e-16 1 2095 1015)"/></g></svg>