<svg width="1964" height="835" xmlns="http://www.w3.org/2000/svg" xmlns:xlink="http://www.w3.org/1999/xlink" xml:space="preserve" overflow="hidden"><g transform="translate(-117 -146)"><path d="M399.5 546.5 840.173 546.5" stroke="#000000" stroke-width="6.875" stroke-miterlimit="8" fill="none" fill-rule="evenodd"/><rect x="399.5" y="411.5" width="272" height="271" stroke="#000000" stroke-width="6.875" stroke-miterlimit="8" fill="#FFFFFF"/><text font-family="Poppins,Poppins_MSFontService,sans-serif" font-weight="400" font-size="64" transform="matrix(1 0 0 1 460.108 567)">g</text><text font-family="Poppins,Poppins_MSFontService,sans-serif" font-weight="400" font-size="64" transform="matrix(1 0 0 1 503.649 567)">ate</text><text font-family="Poppins,Poppins_MSFontService,sans-serif" font-weight="400" font-size="64" transform="matrix(1 0 0 1 878.262 566)">output</text><text font-family="Poppins,Poppins_MSFontService,sans-serif" font-weight="400" font-size="64" transform="matrix(1 0 0 1 155.966 505)">A</text><text font-family="Poppins,Poppins_MSFontService,sans-serif" font-weight="700" font-size="64" transform="matrix(1 0 0 1 322.321 813)">Two</text><text font-family="Poppins,Poppins_MSFontService,sans-serif" font-weight="700" font-size="64" transform="matrix(1 0 0 1 456.383 813)">-</text><text font-family="Poppins,Poppins_MSFontService,sans-serif" font-weight="700" font-size="64" transform="matrix(1 0 0 1 493.623 813)">bit gate</text><path d="M1345.39 148.875 1517.21 148.875 1517.21 282.708 1345.39 282.708Z" fill="#F2F2F2" fill-rule="evenodd"/><path d="M1517.21 148.875 1689.03 148.875 1689.03 282.708 1517.21 282.708Z" fill="#F2F2F2" fill-rule="evenodd"/><path d="M1689.03 148.875 2046.64 148.875 2046.64 282.708 1689.03 282.708Z" fill="#F2F2F2" fill-rule="evenodd"/><path d="M1517.21 146.583 1517.21 820.333" stroke="#000000" stroke-width="4.58333" stroke-linejoin="round" stroke-miterlimit="10" fill="none" fill-rule="evenodd"/><path d="M1689.03 146.583 1689.03 820.333" stroke="#000000" stroke-width="4.58333" stroke-linejoin="round" stroke-miterlimit="10" fill="none" fill-rule="evenodd"/><path d="M1343.1 282.708 2048.93 282.708" stroke="#000000" stroke-width="4.58333" stroke-linejoin="round" stroke-miterlimit="10" fill="none" fill-rule="evenodd"/><path d="M1343.1 416.542 2048.93 416.542" stroke="#000000" stroke-width="4.58333" stroke-linejoin="round" stroke-miterlimit="10" fill="none" fill-rule="evenodd"/><path d="M1343.1 550.375 2048.93 550.375" stroke="#000000" stroke-width="4.58333" stroke-linejoin="round" stroke-miterlimit="10" fill="none" fill-rule="evenodd"/><path d="M1343.1 684.208 2048.93 684.208" stroke="#000000" stroke-width="4.58333" stroke-linejoin="round" stroke-miterlimit="10" fill="none" fill-rule="evenodd"/><path d="M1345.39 146.583 1345.39 820.333" stroke="#000000" stroke-width="4.58333" stroke-linejoin="round" stroke-miterlimit="10" fill="none" fill-rule="evenodd"/><path d="M2046.64 146.583 2046.64 820.333" stroke="#000000" stroke-width="4.58333" stroke-linejoin="round" stroke-miterlimit="10" fill="none" fill-rule="evenodd"/><path d="M1343.1 148.875 2048.93 148.875" stroke="#000000" stroke-width="4.58333" stroke-linejoin="round" stroke-miterlimit="10" fill="none" fill-rule="evenodd"/><path d="M1343.1 818.042 2048.93 818.042" stroke="#000000" stroke-width="4.58333" stroke-linejoin="round" stroke-miterlimit="10" fill="none" fill-rule="evenodd"/><text font-family="Poppins,Poppins_MSFontService,sans-serif" font-weight="400" font-size="64" transform="matrix(1 0 0 1 1756.12 236)">Output</text><text font-family="Poppins,Poppins_MSFontService,sans-serif" font-weight="400" font-size="64" transform="matrix(1 0 0 1 1583.36 236)">B</text><text font-family="Poppins,Poppins_MSFontService,sans-serif" font-weight="400" font-size="64" transform="matrix(1 0 0 1 1409.82 236)">A</text><text font-family="Poppins,Poppins_MSFontService,sans-serif" font-weight="400" font-size="64" transform="matrix(1 0 0 1 1850.94 370)">?</text><text font-family="Poppins,Poppins_MSFontService,sans-serif" font-weight="400" font-size="64" transform="matrix(1 0 0 1 1583.07 370)">0</text><text font-family="Poppins,Poppins_MSFontService,sans-serif" font-weight="400" font-size="64" transform="matrix(1 0 0 1 1411.25 370)">0</text><text font-family="Poppins,Poppins_MSFontService,sans-serif" font-weight="400" font-size="64" transform="matrix(1 0 0 1 1850.94 504)">?</text><text font-family="Poppins,Poppins_MSFontService,sans-serif" font-weight="400" font-size="64" transform="matrix(1 0 0 1 1592.81 504)">1</text><text font-family="Poppins,Poppins_MSFontService,sans-serif" font-weight="400" font-size="64" transform="matrix(1 0 0 1 1411.25 504)">0</text><text font-family="Poppins,Poppins_MSFontService,sans-serif" font-weight="400" font-size="64" transform="matrix(1 0 0 1 1850.94 638)">?</text><text font-family="Poppins,Poppins_MSFontService,sans-serif" font-weight="400" font-size="64" transform="matrix(1 0 0 1 1583.07 638)">0</text><text font-family="Poppins,Poppins_MSFontService,sans-serif" font-weight="400" font-size="64" transform="matrix(1 0 0 1 1420.99 638)">1</text><text font-family="Poppins,Poppins_MSFontService,sans-serif" font-weight="400" font-size="64" transform="matrix(1 0 0 1 1850.94 772)">?</text><text font-family="Poppins,Poppins_MSFontService,sans-serif" font-weight="400" font-size="64" transform="matrix(1 0 0 1 1592.81 772)">1</text><text font-family="Poppins,Poppins_MSFontService,sans-serif" font-weight="400" font-size="64" transform="matrix(1 0 0 1 1420.99 772)">1</text><text font-family="Poppins,Poppins_MSFontService,sans-serif" font-weight="700" font-size="64" transform="matrix(1 0 0 1 1384.35 924)">Two</text><text font-family="Poppins,Poppins_MSFontService,sans-serif" font-weight="700" font-size="64" transform="matrix(1 0 0 1 1518.41 924)">-</text><text font-family="Poppins,Poppins_MSFontService,sans-serif" font-weight="700" font-size="64" transform="matrix(1 0 0 1 1555.65 924)">bit truth table</text><path d="M230.5 610.5 399.61 610.5" stroke="#000000" stroke-width="6.875" stroke-miterlimit="8" fill="none" fill-rule="evenodd"/><path d="M230.5 485.5 399.61 485.5" stroke="#000000" stroke-width="6.875" stroke-miterlimit="8" fill="none" fill-rule="evenodd"/><text font-family="Poppins,Poppins_MSFontService,sans-serif" font-weight="400" font-size="64" transform="matrix(1 0 0 1 157.685 630)">B</text></g></svg>